<svg
  xmlns="http://www.w3.org/2000/svg" width="512pt" height="512pt" viewBox="0 0 512 512">
  <defs/>
  <g fill="#ffcf41">
    <path d="M0 0h3c7 5 13 12 20 16l10 2 2 15c-5-2-9-5-13-9-6-5-8-12-14-16L0 3V0zm110 0h1c2 8 3 19 12 23 8 3 17 5 26 4 10-1 16-11 25-14v1c-3 7-8 12-12 18h1l-2 1v-2l-17 5c-12 1-26-1-36-9-5-4-10-9-9-16 1-4 4-6 6-9l3-1 2-1zm153 0h13l6 9-3 10-1-3 1-4-3 4c-6-2-11 3-14 7-5 5-11 11-19 11-2-1-6 0-6-4h2c6 0 6-8 11-10l8-5c3-4 4-10 5-15zm99 0h4c-2 6-3 12-2 18 1 8 5 16 12 20 5 3 11 3 17 4 3 1 6 3 6 6 0 6-4 11-8 16h-15c2-3 4-5 3-8-1-5-6-8-10-10-5-4-9-9-10-16-2-10 0-20 3-30zm117 0h2c1 1 3 3 5 3l6-3h20v3c-6-1-12-1-17 3-4 3-4 9-9 11-5 0-8-5-10-9l3-8zM175 21l5-9h1l-4 8-2 1zm155 65l20 8 1 1 8 6c-4 3-8 5-13 6-9 0-18 0-26 3-6 4-11 10-13 17-2 9-1 19-4 28-2 4-5 7-9 10-7-7-12-15-15-24l5-4 1 2 2-9c4-5 6-12 10-18l13-13a41 41 0 0121-4c-3-2-6-2-9-2l8-7zm114 0c4 2 7 3 10 6l-7 4c-3 2-4 5-5 8l-3 6c-3-1-6-4-9-2-11 5-16 18-11 29 3 7 10 11 12 19 2 4-2 7-1 11 1 3 3 7 1 10-8-1-15-6-21-12v-1l1-5 4 4c-6-12-11-24-10-38 0-9 4-18 11-24l13-3c6-2 14-5 15-12z"/>
    <path d="M450 96l4-3v4l-4-1zm-10 18c1-3 2-7 4-9v1l-1 4h6c-2 3-5 3-8 2l-1 2zm-403 1c2-4 5-7 10-7s7 4 10 7l-1 4h-4c-2-1-5-2-7 0-4 1-5 4-6 8-3 6-1 15 6 18 4 1 7-2 11-3l2 2-1 1c-6 4-11 10-14 17-2 4-1 8 2 12l1 8-5-6c-3-7-7-13-8-21l6 7-6-13v-23c0-4 2-8 4-11z"/>
    <path d="M58 116h4l-2 5-3-1 1-4zm4 7c4 1 8-1 11-2v1c-1 2-5 3-8 3l-3-2zm6 44l5 2 2 10c0 6-4 13-11 14l-5-1c-5-3-9-9-12-14l-1-3c3 0 5 0 7-2 0 6 5 14 12 14 5-1 7-6 7-10s-2-7-4-10zm261 44c3-5 7-8 11-11l2 8c1 5 4 9 8 11l8 7c-3 3-7 6-7 11a30 30 0 0038 24c8-2 15-9 24-8 5 0 7 3 11 5 6 1 12-2 17 2-6 10-15 18-25 23l-7-4 8-4c-5 1-10 3-16 3l-6-1h-24c-13-3-25-11-32-23l-1-24c0-7-2-16-9-19z"/>
    <path d="M361 213c3 3 3 9-2 12l-7-6c3 1 5 3 7 1 3-1 2-5 2-7zm-141 7c4-5 11-5 17-3 15 6 28 18 37 31 2 2 4 6 7 7l1 1c2 4 2 9 3 14l-2-2c0 4 0 10-4 13h-2v-2c1-2 3-4 3-7-1-5-3-11-8-11-3-1-6 1-8 3l-3-4c2-3 5-6 9-5 6 1 10 6 12 12 3-1 0-4-1-6-2-7-13-12-19-6l-2 1c0-6-1-11-4-16-1-1-3-2-5-1-4 1-4 6-6 9-2-8-2-15-6-22l-4-3c-4-4-10-4-15-3z"/>
    <path d="M221 222c3-2 8-2 11 1l2 2-1 3c-3-3-9-4-12-1-3 2-4 6-4 9l-2-7 6-7zm257 8c7-3 16-5 24-5l3 5h-3l2 1 8 7v22c-7-10-21-12-30-20-3-3-4-6-4-10zm-365 14c6-6 15-10 25-10l-1 9-12 8c-6 4-8 11-7 18 0 7 5 14 12 17 4 3 9 3 13 7 2 3 4 7 2 10-1 3-5 4-8 4l-13 1c-7-2-13-6-17-12-2-5-5-11-6-17-1-13 2-26 12-35m-10 29c0 12 6 25 17 31-3-4-7-7-9-12-4-6-6-12-8-19zM0 239c8 8 15 18 17 29l-3 15 4-6 3 9c-5 8-13 14-21 19v-17c4-9 6-19 0-27v-22zm512 67c-3-5-3-12 0-16v16zM63 356c5-4 11-6 17-5l-2 5c-2-1-3-1-4 1-4 4-2 10-6 14-3 3-7 5-8 10-3 8-1 17 0 25 0 4-4 5-7 4-9-1-13-10-20-13v-13l2 1v7l2-6c4-1 7-1 10-4 6-8 8-19 16-26zm21-5h3l-7 7c0-3 3-5 4-7zm70 12l6 2c4 5 2 11 5 17 4 7 15 11 23 7 5-2 9-6 12-10 4-3 11-3 13 2 1 6-2 12-4 17-4 4-8 7-14 9-5 0-11 1-17-1-9-2-19-9-23-18-4-8-4-17-1-25m37 40h-16c10 3 22 3 30-4-5 2-9 4-14 4zm125-31c8-5 18-5 27-2 6 5 9 12 15 17l9 1-1 10-4-3c-4-3-8-3-11-2h-6c0-3 1-7-2-9-8-7-22-5-28 4-4 4-5 11-9 15-3 2-6 2-10 3-3 2-5 5-9 5-1-7 0-15 3-22h5l-2 4 9-10 14-11zm48 105c6-5 12-9 19-11 0 9-2 19-6 28-3 6-8 12-10 18h-5c4-11 7-24 2-35zM93 498c6-1 11 0 17 1v4c-5-2-11-3-16-3l-1-2zm170 14c1-2 0-6 3-7 4 0 8 4 10 7h-13zm-164-3c4 0 8 0 12-2v4h-10l-2-2zm393 3c6-5 14-4 20-1v1h-20z"/>
  </g>
  <g fill="#fedb81">
    <path d="M3 0h14l7 7-4-7h5c4 5 7 12 8 18l-10-2C16 12 10 5 3 0zm90 0h5l10 1-3 1c-4 0-8 1-12-2zm18 0h6l3 9c8 8 22 10 30 2 4-3 5-7 7-11h24l-7 14v-1c-9 3-15 13-25 14-9 1-18-1-26-4-9-4-10-15-12-23zm72 0h2l-4 12h-1l3-12zm157 0h6c-2 12-2 24 2 35 3 9 9 19 19 21-4-5-9-9-12-15-8-12-9-27-6-41h13c-3 10-5 20-3 30 1 7 5 12 10 16 4 2 9 5 10 10 1 3-1 5-3 8-10-2-20-7-26-15a60 60 0 01-10-49zm141 0h11l-6 3c-2 0-4-2-5-3zM262 23c3-4 8-9 14-7-4 7-10 12-17 16s-15 4-23 4c5 3 11 3 16 2 11-3 21-11 26-22l1 3c-3 5-7 10-12 13l-7 6h-1l-8 2c-8 1-17 0-23-6 3 0 6 0 8-3l1-1c0 4 4 3 6 4 8 0 14-6 19-11z"/>
    <path d="M239 27h2l-2 3h-2v-1l1-1 1-1zm-13 3l6 1c-2 1-7 3-6-1zm183 64c6-6 14-10 22-10l13 2c-1 7-9 10-15 12l-13 3 10-10c-7 2-13 6-17 12-7 10-10 23-7 36 1 7 5 14 9 20l-1 5c-9-7-13-20-13-31-1-14 2-29 12-39zm-111-4c10-5 22-6 32-4l-8 7c3 0 6 0 9 2h-5c-6-3-14-1-20 2a38 38 0 00-22 40l-5 4a42 42 0 0119-51z"/>
    <path d="M287 130c1-13 10-26 23-31l-13 13c-4 6-6 13-10 18zM43 162c3-7 8-13 14-17l10 13c-5-1-10-1-14 2s-7 8-8 14c-3-4-4-8-2-12zm267 1l12-11c-3 4-7 8-12 11z"/>
    <path d="M55 160c4-2 8-1 12-1v1l6 9-5-2c-2-1-4-3-7-3-5 0-7 5-8 9-2 2-4 2-7 2 1-6 4-12 9-15zm274 51c7 3 9 12 9 19l1 24c-5-5-7-12-10-18-1 9 4 18 9 25 9 11 21 19 34 22 12 2 26 1 37-4l7 4c-13 7-28 9-43 5-16-2-31-10-41-22-6-8-11-17-12-27s3-20 9-28zm173 14l10 1v7c-3-1-5-3-8-2l-2-1h3l-3-5zM0 226c6 2 12 5 17 10a39 39 0 014 50l-3-9a36 36 0 00-18-44v-7z"/>
    <path d="M0 236c11 7 17 20 17 32-2-11-9-21-17-29v-3zm251 3c2-1 4 0 5 1 3 5 4 10 4 16l2-1v1c-2 3-4 5-4 8-3-6-8-12-13-16 2-3 2-8 6-9zm-126 12l12-8v2c1 2-1 4-3 4-9 4-14 16-10 25 5 7 14 10 22 10 2 0 3 1 3 3l4 22-2 3c-9 0-19 0-27-4l13-1c3 0 7-1 8-4 2-3 0-7-2-10-4-4-9-4-13-7-7-3-12-10-12-17-1-7 1-14 7-18zm349-5c2 0 2 3 2 4l-2-4zm-213 14l3 4c-2 5-1 11 4 14 2 3 6 2 9 1v2h2l-1 1c-5 1-10-1-15-3-4-5-5-13-2-19zm110 17h24l6 1c-6 2-12 1-18 1l-12-2zM51 351c10-7 22-11 33-8 2 1 4 1 5 3h-1c-3 0-5 3-8 5-6-1-12 1-17 5-8 7-10 18-16 26-3 3-6 3-10 4 4-14 13-28 27-35l15-5c-9-2-18 2-25 7-10 8-17 19-19 32l-2-1c2-13 9-24 18-33zm34 0c2-2 4-4 7-4l1 3-3 1h-5zm217 22c9-8 21-13 34-13 9 1 19 4 25 12 3 4 5 10 6 16l-9-1c-6-5-9-12-15-17l12 4c-5-6-12-9-20-9a41 41 0 00-40 24h-5c3-6 6-12 12-16zm-150-11l8 2v1l-6-2-2-1zm8 3c2 0 3 2 5 3 0 5 1 9 4 12 4 5 10 8 16 6 6-3 10-8 12-14 1-1 3-2 4-1l16 3 4 2c-2 8-6 16-12 22 2-5 5-11 4-17-2-5-9-5-13-2-3 4-7 8-12 10-8 4-19 0-23-7-3-6-1-12-5-17zm191 28c3-1 7-1 11 2l-5-1h-2l-1-1h-3zm-11 119c3-14 12-26 24-35 5 11 2 24-2 35h-12c0-6 4-11 5-17-5 5-7 11-9 17h-6zm-162-24c1-2-2-2-3-4h9c-1 5-6 8-11 10l-13 5v-1c6-1 13-5 18-10zm2 5l6-5c1 8 1 16-1 24h-1l1-11-4 11h-24l7-7c1-2 0-3-1-5h1l10-2 6-5zm300 19c6-12 20-17 32-14v4c-8-3-18-2-24 5 7-3 16-5 24-3v7c-6-3-14-4-20 1h-12zM0 498c9 2 18 7 24 14h-5c-5-5-12-8-19-10v-4zm110 2c3 1 6 2 7 6-1 2-3 4-6 5v-4l-1-4v-3zM0 504c6 2 11 4 16 8H0v-8zm113 8l4-3v3h-4z"/>
  </g>
  <g fill="#fce9c0">
    <path d="M17 0h3l4 7-7-7z"/>
    <path d="M26 0h57c0 8 2 16 6 23 7 10 18 17 29 20 14 4 29 2 42-5 14-7 24-22 26-38h72c0 5-2 11-7 14-3 3-7 3-11 4l-5 2-2 1c-4 2-8 6-8 12 8 10 23 11 34 5h1c10-4 18-13 22-23 2-5 1-10 1-15h55c-3 16 0 35 10 48 6 9 15 14 25 16 14 3 30 1 40-10-1-7-4-14-8-20-3-4-6-7-11-9-2 3-6 5-10 5-5 1-8-3-10-7-3-7-2-16 2-23h102c-3 7-5 15-2 22v2c8 2 16 1 23-3-1-4-1-10 3-12 3-2 7-1 10 0v216c-15-4-31 0-43 8 1 8 4 15 7 22h1a412 412 0 012 2l-1-1-1 1 5 9c5-3 10-7 16-6 3 0 5 2 6 5 1 6-3 11-8 13-3 3-8 2-10 7-1 6 0 12 2 18 1 4 3 9 7 11 6-1 12-4 17-7v190c-13-3-28 3-33 15H376c3-4 6-8 11-10 2 0 6 1 7-2 3-10 5-21 5-31 1-3 1-6-1-8h-8c-13 5-25 12-35 22-8 8-14 18-16 29h-56c1-1 0-2-1-3 0-6-3-10-6-14-4-7-10-13-18-14-4 1-7 4-10 7-2 4-5 10-2 14 2 3 6 2 9 4l3 6h-71c1-10 3-21-3-30-6-1-12 2-17 4-5 1-9 4-12 7-2 1-4 3-3 6 2 4 1 9-2 13h-31c-1-4 0-9-4-11-5-4-12-5-18-5-4 0-9 0-12 4-2 4-1 8-1 12H26c-6-8-16-13-26-15V307l13-9c8-7 13-17 16-27 2-10-1-21-6-29-5-9-14-14-23-17V9c4 2 7 6 10 9v10c-1 2 1 3 2 4h1c6 5 12 10 19 12 3 0 3-4 4-7 1-13-2-27-10-37m390 87c-10 6-17 17-19 29-3 10-2 21 1 32 6 17 23 32 42 32 5 0 11-1 15-5 3-6 0-13-3-18s-9-4-13-8c-6-4-11-11-11-19-1-5 2-10 5-13 3-2 8-1 11 0 3-1 7-3 9-6 3-5 7-11 6-17-11-11-30-16-43-7m-113 0c-11 4-21 12-25 24-3 9-3 20-1 30 5 12 13 23 24 31 10-7 20-15 28-26-4-3-10-7-12-12-2-4 0-9 4-11 4-1 9-1 12 2 4 2 7 6 10 9 4 1 9 0 12-3h2c6-4 12-7 15-13l1-5-11-11c-3-3-7-6-11-7l-1-1c-6-6-15-8-23-10-8-1-16 0-24 3M30 107c-5 6-8 13-9 21-1 14 4 28 12 39 6 10 14 19 23 25 4 3 11 3 15-1 8-8 8-21 1-29l-10-12c-5-8-10-17-9-27 4 2 8 4 12 4 7-1 14-6 18-12 3-3 3-9 0-12-4-8-14-13-23-13-12 1-23 8-30 17m314 88c-11 7-20 18-24 30-3 10-1 22 4 31 8 15 22 26 39 31 12 4 26 6 39 3 15-4 29-12 37-25 5-7 8-15 9-23 1-6-1-13-7-15-7-2-14-2-21 1-5 2-7 8-11 11-7 7-17 10-27 9-8 0-17-7-18-16 0-5 5-7 4-12-1-9-8-16-15-21-2-2-5-4-9-4m-136 28c-3 9 2 18 9 23 5 3 12 1 16-2 4 0 7 2 10 4 7 6 13 14 15 23 1 5 4 9 8 12 5 4 13 2 16-3 3-4 4-9 3-13 0-10-5-18-10-26-7-10-17-17-27-24-7-4-14-7-22-6-8 0-16 4-18 12m-94 8c-11 5-18 17-20 29-1 8-1 16 2 23 6 14 20 26 35 29 7 2 15 1 22 1l1-9c0-7-1-15-6-21-8 0-16-2-21-8-6-8-2-21 7-24l4-2c3-7 3-16 0-22-8-1-17 0-24 4M71 341c-7 2-14 4-19 9-12 9-20 23-21 38-1 12 4 24 12 33 8 8 18 15 30 16 4 1 7-2 9-5 5-6 7-15 4-23-2-3-6-5-9-4-5 1-10-2-11-7-5-10 1-23 11-27 9-1 13-10 16-17 1-2 2-7-1-8-6-4-13-6-21-5m230 31a43 43 0 00-14 43c2 5 4 10 8 13 3 2 7 1 10-1 4-3 8-7 8-12-2-10 3-20 12-24 4-3 11-2 15 2 1 2 0 5 2 7l6 3c6 2 12 3 18 0 1-5 3-10 2-15-1-7-3-14-8-19-6-6-15-9-24-10-13 0-25 5-35 13m-153-12c-5 11-6 25 1 35 5 8 13 13 22 16 11 2 22 0 31-6 11-6 18-18 20-30-5-4-12-6-19-6-3 0-6 0-7 3-3 5-7 10-12 13-7 2-15-4-17-11l-1-7c-5-4-11-7-18-7z"/>
    <path d="M119 0h31c-3 5-9 8-15 9-7 0-13-3-16-9zm62 0h2l-3 12-5 9c-4 4-7 8-12 11h-1c4-6 9-11 12-18l7-14zm165 0h3c-3 14-2 29 6 41 3 6 8 10 12 15-10-2-16-12-19-21-4-11-4-23-2-35zm-70 16l3-4-1 4c-5 11-15 19-26 22-5 1-11 1-16-2 8 0 16 0 23-4s13-9 17-16zm204 8l16-3c-5 3-11 4-16 3zM18 28c5 1 9 4 12 8l-4-2c0-2-2-2-3-2v-1h-2l-2-1-1-2zm379 0c7 5 11 13 13 21l-6-11-7-10zm-162 3h1c-2 3-5 3-8 3l7-3zm174 72c4-6 10-10 17-12l-10 10c-7 6-11 15-11 24-1 14 4 26 10 38l-4-4c-4-6-8-13-9-20-3-13 0-26 7-36zm-103-6c6-3 14-5 20-2-5 0-11 1-16 4-13 5-22 18-23 31l-2 9-1-2c0-6 0-12 2-17 3-10 11-19 20-23zm136 7c1-3 2-6 5-8l-5 8zm-360 8l2-4c0 6-5 11-11 14v-1c4-2 7-5 9-9zm267 8c6-4 11-8 18-8-9 2-16 8-23 14l5-6zm-316 6v23l6 13-6-7-3-15c0-5 2-10 3-14zm408 47c-4-3-5-9-4-14 0 5 2 10 4 14zM67 160c7 3 9 12 9 19h-1l-2-10-6-9zm-20 18c3 5 7 11 12 14-6-2-12-8-12-14zm295 30l8 11c-4-2-7-6-8-11zm-129 28c-2-6 2-12 8-14l-6 7-2 7zm19-13c4 3 6 10 4 15l-2-13-2-2zm-94 7c1 5 2 10-1 15v-2l1-9v-4zm366 1c3-1 5 1 8 2v5l-8-7zM0 233c6 3 12 8 15 15a36 36 0 01-1 35l3-15c0-12-6-25-17-32v-3zm329 3c3 6 5 13 10 18 7 12 19 20 32 23l12 2c6 0 12 1 18-1 6 0 11-2 16-3l-8 4c-11 5-25 6-37 4-13-3-25-11-34-22-5-7-10-16-9-25zm91 10c6 2 13 1 19 0-5 4-14 5-19 0zm-158 9c6-6 17-1 19 6-3-3-6-7-11-7l-8 2v-1zm-159 18c2 7 4 13 8 19 2 5 6 8 9 12-11-6-17-19-17-31zm160 6c5 2 10 4 15 3-5 4-12 2-15-3zm-114 8zm346-1c4 6 6 15 4 22 0-7-2-15-4-22zM54 353c7-5 16-9 25-7l-15 5c-14 7-23 21-27 35l-2 6v-7c2-13 9-24 19-32zm26-2c3-2 5-5 8-5-3 3-7 6-9 10l-4 8c0-3 1-6 3-8l2-5zm227 23c7-7 18-10 28-9 8 0 15 3 20 9l-12-4c-9-3-19-3-27 2l-14 11-9 10 2-4c3-6 7-11 12-15zm-107-4c6 0 12 2 17 3v1l-16-3-1-1zm-9 33c5 0 9-2 14-4-8 7-20 7-30 4h16zm104 14c1-3 3-6 7-7l-1 2c-3 1-4 3-6 5zm-228 3c0-3 1-7 4-9l-4 9zm320 72c-2-9-1-18 4-25l-4 25zm-223 8l16-7-6 5-10 2zm182 12c2-6 4-12 9-17-1 6-5 11-5 17h-4zm-89-11c0-2 2-4 4-4 0 2-2 4-4 4zm231 6c6-7 16-8 24-5v2c-8-2-17 0-24 3zm-307 5l4-11-1 11h-3zM0 502c7 2 14 5 19 10h-3c-5-4-10-6-16-8v-2z"/>
  </g>
  <g fill="#8f7843">
    <path d="M25 0h1c8 10 11 24 10 37-1 3-1 7-4 7-7-2-13-7-19-12l1-2 4 2h-2l13 9 1-2 2 4 2-1c-2-3-4-5-7-6l-1-2 4 2 5 3v-6l-2-15c-1-6-4-13-8-18zm58 0h2c-1 9 2 19 8 26 19 21 55 23 75 5a49 49 0 0013-19l4-12h1c-2 16-12 31-26 38-13 7-28 9-42 5-11-3-22-10-29-20-4-7-6-15-6-23zm175 0h1c1 9-6 17-15 19v3l-2-3-2-1c4-1 8-1 11-4 5-3 7-9 7-14zm241 11c3-5 9-4 13-3v1c-3-1-7-2-10 0-4 2-4 8-3 12-7 4-15 5-23 3v-2l4 2c5 1 11 0 16-3h2c-1-4-1-7 1-10zM0 9c4 1 9 5 10 9-3-3-6-7-10-9zm235 11l5-2-2 2c2 0 4 0 3 2-1 3-4 5-6 7-2 1-4 2-6 1v-2c1-3 5-6 8-8h-2m-5 9c4 0 8-4 10-8-4 1-8 4-10 8z"/>
    <path d="M10 18c2 3 2 6 2 9a931 931 0 017 3l-8-2 1 4c-1-1-3-2-2-4V18zm406 69c13-9 32-4 43 7 1 6-3 12-6 17-2 3-6 5-9 6-3-1-8-2-11 0-3 3-6 8-5 13 0 8 5 15 11 19 4 4 10 3 13 8s6 12 3 18c-4 4-10 5-15 5-19 0-36-15-42-32-3-11-4-22-1-32 2-12 9-23 19-29m-7 7a49 49 0 00-12 39c0 11 4 24 13 31v1c6 6 13 11 21 12v1h15l-5-5c-2-4-4-9-4-14l4-6c-8-6-15-15-15-25 1-6 6-14 13-13v-5l3-6 5-8 7-4c-3-3-6-4-10-6l-13-2c-8 0-16 4-22 10m41 2l4 1 1 3c-1 4-3 7-6 10h-6l1-4c-1 3 2 4 4 3l5-8c0-1 0-4-2-4-4 2-4 7-7 9v-1c-2 2-3 6-4 9 3 3 7 1 9-1 4-4 7-10 9-16 1-3-2-4-4-4l-4 3m-9 60c-3 3-2 9 0 12 1 4 4 8 8 9 7-1 7-12 3-16v-2h-1c-1-4-7-7-10-3zm-81-29c0-2 2-2 3-2 0 1-1 3-3 2zm-15 82h1v2l-1-1v-1zm-137 14c2-8 10-12 18-12 8-1 15 2 22 6 10 7 20 14 27 24 5 8 10 16 10 26 1 4 0 9-3 13-3 5-11 7-16 3-4-3-7-7-8-12-2-9-8-17-15-23-3-2-6-4-10-4-4 3-11 5-16 2-7-5-12-14-9-23m7-7c-7 4-8 14-4 20l1-9 8-7c5-1 11-1 15 3 1 3 3 6 3 10s-2 7-3 10c4 1 7 2 10 5 5 4 10 10 13 16 0-3 2-5 4-8l8-2c5 0 8 4 11 7 1 2 4 5 1 6-2-6-6-11-12-12-4-1-7 2-9 5-3 6-2 14 2 19 3 5 10 7 15 3l1-1c4-3 4-9 4-13l2 2c-1-5-1-10-3-14l-1-1-3-7c-9-14-22-25-36-32-8-4-19-6-27 0m6 6c-6 2-10 8-8 14 0 3 2 5 4 7 6 6 16 2 19-5 2-5 0-12-4-15-3-3-8-3-11-1zm248 11c12-8 28-12 43-8v1l-10-1a55 55 0 00-32 9l4 12 2 4v1l1 4h-1c-3-7-6-14-7-22zM0 225c9 3 18 8 23 17 5 8 8 19 6 29-3 10-8 20-16 27l-13 9v-2c8-5 16-11 21-19a39 39 0 00-4-50c-5-5-11-8-17-10v-1zm114 6c7-4 16-5 24-4 3 6 3 15 0 22l-4 2c-9 3-13 16-7 24 5 6 13 8 21 8 5 6 6 14 6 21l-1 9c-7 0-15 1-22-1-15-3-29-15-35-29-3-7-3-15-2-23 2-12 9-24 20-29m9-2c-9 2-18 8-23 16-9 16-7 39 7 51 4 6 10 10 17 12 8 4 18 4 27 4l2-3c1-7 0-16-4-22 0-2-1-3-3-3-8 0-17-3-22-10-4-9 1-21 10-25 2 0 4-2 3-4 3-5 2-10 1-15l-1-2-14 1zm366 72c-1 0-2-4 0-4v4zm-188 71c10-8 22-13 35-13 9 1 18 4 24 10 5 5 7 12 8 19 1 5-1 10-2 15-6 3-12 2-18 0l-6-3c-2-2-1-5-2-7-4-4-11-5-15-2-9 4-14 14-12 24 0 5-4 9-8 12-3 2-7 3-10 1-4-3-6-8-8-13-4-16 1-33 14-43m1 1c-6 4-9 10-12 16-3 7-4 15-3 22 1 5 3 9 6 13l2-7c2-2 3-4 6-5l1-2h9c1-8 6-17 13-20 6-3 14-3 17 3 1 2 3 0 4 0h9l1 1c-5 1-9-1-13 1-1 5 4 7 7 8h15l1-4-3-2c1 3-3 6-6 5-4 0-11-2-9-7 1 0 4-2 5 1h-4c1 5 8 6 12 4v-3l-8-1v-1l5-1 5 1 4 3 1-10c-1-6-3-12-6-16-6-8-16-11-25-12-13 0-25 5-34 13m4 37c2 1 5 3 4 6 0 5-4 11-10 9-4-5 0-12 5-14l-4 1c-2 4-7 7-7 12 1 4 6 5 9 3 5-3 11-9 8-16l-5-1m0 2c-4 1-7 6-6 11 1 2 4 1 5 0 3-2 5-5 4-9l-3-2zm-58 76c3-3 6-6 10-7 8 1 14 7 18 14 3 4 6 8 6 14-2-5-3-10-6-14-4-5-8-9-14-12 2 5 0 10-1 14-2 0-4 2-4 4l-3 3 5 8h-1l-3-6c-3-2-7-1-9-4-3-4 0-10 2-14m3-1c-3 2-4 6-5 10 0 3 2 7 5 6 3 0 5-3 7-5 4-4 5-11 2-16-4 0-7 2-9 5z"/>
    <path d="M250 492c2-3 5-7 9-6 1 4-1 9-4 11-2 1-4 3-6 2-2-2 0-5 1-7m0 6c5-2 9-6 8-11-4 2-9 6-8 11zm-165 2c3-4 8-4 12-4 6 0 13 1 18 5 4 2 3 7 4 11h-2v-3l-4 3H95c-1-1-2-2-3-1l-7-4v5h-1c0-4-1-8 1-12m3 0c-3 1-3 5-1 7 4 3 9 4 14 4h10c3-1 5-3 6-5-1-4-4-5-7-6v-1c-6-1-11-2-17-1l-5 2z"/>
    <path d="M88 505c-1-4 3-5 6-5 5 0 11 1 16 3l1 4c-4 2-8 2-12 2l-11-4m1-1c4 2 9 3 14 3 2 0 5 0 7-2-5-3-12-3-18-3l-3 2z"/>
  </g>
  <g fill="#f7b318">
    <path d="M85 0h8c4 3 8 2 12 2-2 3-5 5-6 9-1 7 4 12 9 16 10 8 24 10 36 9l17-5v2l2-1c5-3 8-7 12-11l2-1c-2 4-5 8-9 11a54 54 0 01-75-5c-6-7-9-17-8-26z"/>
    <path d="M117 0c2 4 5 7 9 9 9 4 21-1 26-9h5c-2 4-3 8-7 11-8 8-22 6-30-2l-3-9zm142 0h4c-1 5-2 11-5 15l-8 5c-5 2-5 10-11 10l2-3 1-3c-2 0-3 2-3 3a118 118 0 01-2 2c-1 0-3 1-2 2h-3l-6-1 7-9 2-1h2c-3 2-7 5-8 8v2c2 1 4 0 6-1 2-2 5-4 6-7 1-2-1-2-3-2l2-2 2 1 2 3v-3c9-2 16-10 15-19m-17 22c1 1 1 1 0 0zm34-22h6v9l-6-9zm90 0h8c-4 8-5 18 0 26 2 5 8 6 13 5 3 0 5-2 8-4l2 1 7 10 6 11c1 1 2 4 0 5-5 5-12 8-19 10 4-5 8-10 8-16 0-3-3-5-6-6-6-1-12-1-17-4-7-4-11-12-12-20-1-6 0-12 2-18zM0 3l8 5c6 4 8 11 14 16 4 4 8 7 13 9v6l-5-3c-3-4-7-7-12-8l-6-1c0-3 0-6-2-9-1-4-6-8-10-9V3zm495 3c5-4 11-4 17-3v5c-4-1-10-2-13 3-2 3-2 6-1 10h-2l-16 3-4-2V8c2 4 5 9 10 9 5-2 5-8 9-11z"/>
    <path d="M11 28l8 2v1h2l2 1 1 2-4-1-2-1-4-2-1 2h-1l-1-4zm16 8c3 1 5 3 7 6l-2 1-2-4-3-3zm14 63c7-6 18-10 28-6 5 1 9 4 12 8-10-1-19 5-24 14-3-3-5-7-10-7s-8 3-10 7c-2 3-4 7-4 11-1 4-3 9-3 14l3 15c1 8 5 14 8 21l-6-8c-7-10-12-21-13-33-1-14 7-28 19-36zm413-6c2 0 5 1 4 4-2 6-5 12-9 16-2 2-6 4-9 1l1-2c3 1 6 1 8-2 3-3 5-6 6-10a25 25 0 01-1-7zm-95 8l11 11h-3c-7 0-12 4-18 8l-5 6-2 4-11-8c-4-1-9-1-13 2-3 2-4 7-2 10 2 6 6 9 11 12l-5 6-12 11-9 7-7-5c4-3 7-6 9-10 3-9 2-19 4-28 2-7 7-13 13-17 8-3 17-3 26-3 5-1 9-3 13-6z"/>
    <path d="M58 116c4-7 10-12 18-14 4 0 7 2 8 6l-2 4c-1-2-2-4-5-4-6 0-11 4-15 8h-4zm372-8c3-2 6 1 9 2v5c-7-1-12 7-13 13 0 10 7 19 15 25l-4 6c-1 5 0 11 4 14l5 5h-15v-1c2-3 0-7-1-10-1-4 3-7 1-11-2-8-9-12-12-19-5-11 0-24 11-29zm-62 6h4c-1 5-4 8-8 10 2-2 5-5 4-8-5 0-9 3-13 6-4 2-7 5-7 9 3 1 6-1 9-2l-1 2h-1l-11 2c-2-1-1-3 0-4l9-8c4-3 9-6 15-7zm-316 5h4v4l-4-4zm-8 2c2-2 6-2 8 0-1 7 0 14 4 21-4 1-7 4-11 3-7-3-9-12-6-18 3-1 2-5 5-6zm13-1l3 1 2 2 3 2h-6l-2-5z"/>
    <path d="M441 156c3-4 9-1 10 3-3-3-6-4-10-3zm0 12c-2-3-3-9 0-12-1 3-2 6 0 9s6 7 10 6c4-2 2-7 1-10 4 4 4 15-3 16-4-1-7-5-8-9zm-99 31c1-2 4-3 6-2 5 3 9 7 13 12 4 4 7 9 5 15-2 2-5 2-7 1 5-3 5-9 2-12-3-4-6-9-11-10-2-1-5 0-6 2l1 4c-2-2-4-6-3-10zm-127 17c8-6 19-4 27 0 14 7 27 18 36 32l3 7c-3-1-5-5-7-7a86 86 0 00-37-31c-6-2-13-2-17 3l-8 7-1 9c-4-6-3-16 4-20z"/>
    <path d="M235 223l4 3c4 7 4 14 6 22-3-3-6-4-10-5 1-3 3-6 3-10s-2-7-3-10z"/>
    <path d="M234 225l2 13c-3 7-13 11-19 5-2-2-4-4-4-7l2-7 2 7c1 3 3 7 6 8 4 1 9-2 10-6 2-3 1-7 0-10l1-3zm124 1l6 2c-1 2-2 5-1 8 3 8 12 14 20 14 11 0 22-4 30-12 1 4 3 7 7 8 5 5 14 4 19 0l8-5c-1 7-3 13-6 19-5-4-11-1-17-2-4-2-6-5-11-5-9-1-16 6-24 8a31 31 0 01-38-24c0-5 4-8 7-11z"/>
    <path d="M427 228c5-1 11-1 15 1 3 2 4 5 4 8s-3 5-5 6c-7 3-16 5-23 1-2-2-4-6-3-9 3-4 8-7 12-7m3 0c-6 0-14 5-13 12 4 7 15 5 19-1 2-2 4-5 2-8-2-2-5-3-8-3zm-307 1l14-1a956 956 0 011 6c-10 0-19 4-25 10-10 9-13 22-12 35 1 6 4 12 6 17-14-12-16-35-7-51 5-8 14-14 23-16zm347 5l8-4c0 4 1 7 4 10 9 8 23 10 30 20v30c-3 4-3 11 0 16l-14 6 1-4c2-7 0-16-4-22l-1-1-2-3c4-2 9-5 12-9 2-4 2-11-3-13-6-4-13 0-18 4l-4-7-3-6v-1c0-1 0-4-2-4l-4-12zM0 261c6 8 4 18 0 27v-27z"/>
    <path d="M489 283c3-1 4 3 5 5 3 8 5 16 3 24-5 1-7-5-7-8 1 2 2 4 5 5 2-3 1-7 0-10 0-4-1-9-5-12-4 0-2 6-2 8-1-4-1-8 1-12zM90 351l3-1c-1 5-4 9-6 14l-3 2c2-5 7-9 6-15zm-16 6c1-2 2-2 4-1-2 2-3 5-3 8l1 7c-5 2-9 5-11 10-3 7-3 15 1 21 2 3 5 4 8 5l-3 4c-3 2-4 6-4 9 0 6 1 11 4 15-10-1-20-7-27-14-6-7-10-15-11-24 7 3 11 12 20 13 3 1 7 0 7-4-1-8-3-17 0-25 1-5 5-7 8-10 4-4 2-10 6-14z"/>
    <path d="M78 361c0-1 0-3 2-2-1 3-3 6-2 9l5-1c-1 2-3 3-6 3-2-3 0-6 1-9zm70 2c1-2 3-2 4-1l2 1c-3 8-3 17 1 25 4 9 14 16 23 18 6 2 12 1 17 1-7 4-15 4-23 3-11-3-21-11-25-22-3-8-2-17 1-25zm-65 4l1-1-1 1zm232 21c6-9 20-11 28-4 3 2 2 6 2 9-1 0-3 2-4 0-3-6-11-6-17-3-7 3-12 12-13 20h-9c-4 1-6 4-7 7l-2 7c-3-4-5-8-6-13 4 0 6-3 9-5 4-1 7-1 10-3 4-4 5-11 9-15zm27 7c4-2 8 0 13-1h2l-5 1v1c-1-3-4-1-5-1-2 5 5 7 9 7 3 1 7-2 6-5l3 2-1 4h-15c-3-1-8-3-7-8zM77 406l6 1c3 4 3 9 3 14-2 5-5 11-10 14-2 2-3 0-4-2-4-5-4-13-1-19 1-3 3-6 6-8m1 6c-5 4-8 11-6 17 1 2 5 2 6 0l4-10c1-2 2-4 0-6 0-2-3-1-4-1z"/>
    <path d="M306 410l5 1c3 7-3 13-8 16-3 2-8 1-9-3 0-5 5-8 7-12l4-1c-5 2-9 9-5 14 6 2 10-4 10-9 1-3-2-5-4-6zm77 56l10-4-2 5c-5 7-6 16-4 25 0 3 0 6 2 9-7 0-11 6-15 11h-7c2-6 7-12 10-18 4-9 6-19 6-28z"/>
    <path d="M393 465c1-2 2-4 4-3l1 4-2-1-4 9c-1 7-2 14-1 21h3l-3 6c-3-3-2-7-2-11 0-8 1-17 4-25zm-142 22c2-3 5-5 9-5 3 5 2 12-2 16-2 2-4 5-7 5-3 1-5-3-5-6 1-4 2-8 5-10m-1 5c-1 2-3 5-1 7 2 1 4-1 6-2 3-2 5-7 4-11-4-1-7 3-9 6z"/>
    <path d="M262 483c6 3 10 7 14 12 3 4 4 9 6 14v3h-6c-2-3-6-7-10-7-3 1-2 5-3 7h-4l-5-8 3-3c2 0 4-2 4-4 1-4 3-9 1-14zM88 500l5-2 1 2c-3 0-7 1-6 5l11 4 2 2c-5 0-10-1-14-4-2-2-2-6 1-7zm72 1l3-1c1 2 2 3 1 5l-7 7h-5l2-6 1-5h5zm-75 6l7 4v1h-7v-5z"/>
  </g>
  <g fill="#635b49">
    <path d="M98 0h12l-2 1-10-1zm19 0h2c3 6 9 9 16 9 6-1 12-4 15-9h2c-5 8-17 13-26 9-4-2-7-5-9-9zm221 0h2c-4 17-1 35 10 49 6 8 16 13 26 15h15c7-2 14-5 19-10 2-1 1-4 0-5-2-8-6-16-13-21l-2-1c-3 2-5 4-8 4-5 1-11 0-13-5-5-8-4-18 0-26h2c-4 7-5 16-2 23 2 4 5 8 10 7 4 0 8-2 10-5 5 2 8 5 11 9 4 6 7 13 8 20-10 11-26 13-40 10-10-2-19-7-25-16a62 62 0 01-10-48zm-96 22c1 1 1 1 0 0zm-4 6zm-1 1zM19 30l2 1h-2v-1zm2 1h2v1l-2-1zm-3 1l2 1h-2v-1zm5 0c1 0 3 0 3 2h-2l-1-2zm-3 1a305 305 0 007 3l3 3c-4-1-7-3-10-6zm283 54c8-3 16-4 24-3 8 2 17 4 23 10l-20-8c-10-2-22-1-32 4-8 5-15 12-18 22-4 9-4 20-1 29s8 17 15 24l7 5 9-7c5-3 9-7 12-11l5-6c-5-3-9-6-11-12-2-3-1-8 2-10 4-3 9-3 13-2l11 8 2-4c7-6 14-12 23-14h3a97 97 0 00-19-17c4 1 8 4 11 7l11 11-1 5c-3 6-9 9-15 13h-1l1-2c1-1 1-1 0 0-3 1-6 3-9 2 0-4 3-7 7-9 4-3 8-6 13-6 1 3-2 6-4 8l-1 1c-1 0-3 0-3 2 2 1 3-1 3-2l1-1c4-2 7-5 8-10h-4c-6 1-11 4-15 7l-9 8c-1 1-2 3 0 4l11-2c-3 3-8 4-12 3-3-3-6-7-10-9-3-3-8-3-12-2-4 2-6 7-4 11 2 5 8 9 12 12-8 11-18 19-28 26-11-8-19-19-24-31-2-10-2-21 1-30 4-12 14-20 25-24m46 43c3 0 6-2 9-4s7-4 9-8h-1c-7 2-14 6-17 12zM30 107c7-9 18-16 30-17 9 0 19 5 23 13 3 3 3 9 0 12-4 6-11 11-18 12-4 0-8-2-12-4-1 10 4 19 9 27l10 12c7 8 7 21-1 29-4 4-11 4-15 1-9-6-17-15-23-25-8-11-13-25-12-39 1-8 4-15 9-21m11-8c-12 8-20 22-19 36 1 12 6 23 13 33l6 8 5 6-1-8c1-6 4-11 8-14s9-3 14-2l-10-13 1-1-2-2c-4-7-5-14-4-21-2-2-6-2-8 0-3 1-2 5-5 6 1-4 2-7 6-8 2-2 5-1 7 0l4 4v-4l1-4c5-9 14-15 24-14-3-4-7-7-12-8-10-4-21 0-28 6m17 17l-1 4 2 5h6c3 0 7-1 8-3 6-3 11-8 11-14-1-4-4-6-8-6-8 2-14 7-18 14m-3 44c-5 3-8 9-9 15l1 3c0 6 6 12 12 14l5 1c7-1 11-8 11-14h1c0-7-2-16-9-19v-1c-4 0-8-1-12 1z"/>
    <path d="M62 116c4-4 9-8 15-8 3 0 4 2 5 4-2 4-5 7-9 9-3 1-7 3-11 2l-2-2 2-5m1 2l-1 4c7 1 13-3 17-8 2-2 1-5-2-5-6 1-10 5-14 9zm378 38c4-1 7 0 10 3l1 2c1 3 3 8-1 10-4 1-8-3-10-6s-1-6 0-9m1 1c-4 5 3 14 9 13 2-2 1-6-1-8-1-3-4-6-8-5zM53 173c1-4 3-9 8-9 3 0 5 2 7 3 2 3 4 6 4 10s-2 9-7 10c-7 0-12-8-12-14m5-7c-3 2-5 7-3 11 1 3 4 6 7 7 2 1 5 1 6-1 4-3 3-9 0-13-2-3-6-6-10-4zm286 29c4 0 7 2 9 4 7 5 14 12 15 21 1 5-4 7-4 12 1 9 10 16 18 16 10 1 20-2 27-9 4-3 6-9 11-11 7-3 14-3 21-1 6 2 8 9 7 15-1 8-4 16-9 23-8 13-22 21-37 25-13 3-27 1-39-3-17-5-31-16-39-31-5-9-7-21-4-31 4-12 13-23 24-30m-2 4c-1 4 1 8 3 10l-1-4c1-2 4-3 6-2 5 1 8 6 11 10 0 2 1 6-2 7-2 2-4 0-7-1l7 6c2 1 5 1 7-1 2-6-1-11-5-15-4-5-8-9-13-12-2-1-5 0-6 2m-13 12c-6 8-10 18-9 28s6 19 12 27c10 12 25 20 41 22a63 63 0 0068-28c3-6 5-12 6-19l-8 5c-6 1-13 2-19 0-4-1-6-4-7-8-8 8-19 12-30 12-8 0-17-6-20-14-1-3 0-6 1-8l-6-2-8-7-8-11-2-8c-4 3-8 6-11 11m17-6c0 4 3 7 5 10 3 2 5 5 8 4 2-5-3-10-7-13-1-2-4-2-6-1m-1 4v1l1 1v-2h-1m1 2c1 1 1 1 0 0m4 5l1 1-1-1c-1-1-1-1 0 0m1 1l1 1-1-1m76 11c-4 0-9 3-12 7-1 3 1 7 3 9 7 4 16 2 23-1 2-1 5-3 5-6s-1-6-4-8c-4-2-10-2-15-1zm-206-1c3-3 9-2 12 1 1 3 2 7 0 10-1 4-6 7-10 6-3-1-5-5-6-8 0-3 1-7 4-9m3-1c-7 2-7 12-2 16 5 2 10-1 11-6s-3-11-9-10z"/>
    <path d="M430 228c3 0 6 1 8 3 2 3 0 6-2 8-4 6-15 8-19 1-1-7 7-12 13-12m-3 2c-3 1-6 2-8 5-1 2 0 5 2 6 6 3 15 0 16-7 0-4-6-4-10-4zm50 27l1-1 1 1 4 7c5-4 12-8 18-4 5 2 5 9 3 13-3 4-8 7-12 9l2 3 1 1c2 7 4 15 4 22l-1 4 14-6v1c-5 3-11 6-17 7-4-2-6-7-7-11-2-6-3-12-2-18 2-5 7-4 10-7 5-2 9-7 8-13-1-3-3-5-6-5-6-1-11 3-16 6l-5-9m12 26c-2 4-2 8-1 12 0-2-2-8 2-8 4 3 5 8 5 12 1 3 2 7 0 10-3-1-4-3-5-5 0 3 2 9 7 8 2-8 0-16-3-24-1-2-2-6-5-5m0 5c0 6 1 11 3 16 1 1 1 3 3 3-1-5-1-11-3-16l-3-3m0 13c-1 1 0 2 1 3 1-2 0-3-1-3v-4c-2 0-1 4 0 4zm-225-37c2-2 5-4 8-3 5 0 7 6 8 11 0 3-2 5-3 7-3 1-7 2-9-1-5-3-6-9-4-14m4-2c-5 2-5 9-2 12 2 5 9 6 12 2 3-6-2-16-10-14zM71 341c8-1 15 1 21 5 3 1 2 6 1 8-3 7-7 16-16 17-10 4-16 17-11 27 1 5 6 8 11 7 3-1 7 1 9 4 3 8 1 17-4 23-2 3-5 6-9 5-12-1-22-8-30-16-8-9-13-21-12-33 1-15 9-29 21-38 5-5 12-7 19-9m-20 10c-9 9-16 20-18 33v13c1 9 5 17 11 24 7 7 17 13 27 14-3-4-4-9-4-15l4-9 3-4c-3-1-6-2-8-5-4-6-4-14-1-21 2-5 6-8 11-10l-1-7 4-8c2-4 6-7 9-10h1c-1-2-3-2-5-3-11-3-23 1-33 8m34 0h-1c-1 2-4 4-4 7l7-7h3c1 6-4 10-6 15l3-2c2-5 5-9 6-14l-1-3c-3 0-5 2-7 4m-2 7c-2 2-4 5-4 9 5-3 9-9 10-15-3 1-5 3-6 6m-5 3c-1 3-3 6-1 9 3 0 5-1 6-3l-5 1c-1-3 1-6 2-9-2-1-2 1-2 2m5 6l1-1-1 1m-6 39c-3 2-5 5-6 8-3 6-3 14 1 19 1 2 2 4 4 2 5-3 8-9 10-14 0-5 0-10-3-14l-6-1z"/>
    <path d="M78 412c1 0 4-1 4 1 2 2 1 4 0 6l-4 10c-1 2-5 2-6 0-2-6 1-13 6-17m-3 5c-2 4-3 8-1 12 3-1 5-4 6-7s2-6 1-9c-3 0-4 3-6 4zm315 44h8c2 2 2 5 1 8 0 10-2 21-5 31-1 3-5 2-7 2-5 2-8 6-11 10h-2c4-5 8-11 15-11-2-3-2-6-2-9l4-25 2-5a89 89 0 00-29 15c-12 9-21 21-24 35h-1c2-11 8-21 16-29 10-10 22-17 35-22m3 4c-3 8-4 17-4 25 0 4-1 8 2 11l3-6h-3c-1-7 0-14 1-21l4-9 2 1-1-4c-2-1-3 1-4 3m1 8c-1 7-3 14-2 21l3-12 2-15c-2 1-2 4-3 6zm-112 36c1 1 2 2 1 3h-1v-3z"/>
  </g>
  <g fill="#9b9073">
    <path d="M282 0h1c0 5 1 10-1 15-4 10-12 19-22 23l7-6c5-3 9-8 12-13l3-10V0zm196 0h1l-3 8v14c-3-7-1-15 2-22zM225 33c0-6 4-10 8-12l-7 9c-1 4 4 2 6 1h3l-7 3c6 6 15 7 23 6l8-2c-11 6-26 5-34-5z"/>
    <path d="M239 27c0-1 1-3 3-3l-1 3h-2zm-4 4c-1-1 1-2 2-2v1l-1 1h-1zm-87 329c7 0 13 3 18 7l1 7c2 7 10 13 17 11 5-3 9-8 12-13 1-3 4-3 7-3 7 0 14 2 19 6-2 12-9 24-20 30-9 6-20 8-31 6-9-3-17-8-22-16-7-10-6-24-1-35m0 3c-3 8-4 17-1 25a36 36 0 0048 19c6-2 10-5 14-9 6-6 10-14 12-22l-4-2v-1c-5-1-11-3-17-3l1 1c-1-1-3 0-4 1-2 6-6 11-12 14-6 2-12-1-16-6-3-3-4-7-4-12-2-1-3-3-5-3v-1l-8-2c-1-1-3-1-4 1zm19 123c5-2 11-5 17-4 6 9 4 20 3 30h-2c2-8 2-16 1-24l-6 5-16 7h-1l-3 1-3-1v-1h3l13-5c5-2 10-5 11-10h-9c1 2 4 2 3 4-5 5-12 9-18 10h-3c7-2 13-5 19-9v-3c-6 2-12 4-18 8l-2 4-2-3 1 5-1 6-2 6h-2c3-4 4-9 2-13-1-3 1-5 3-6 3-3 7-6 12-7zm312 26c5-12 20-18 33-15v1c-12-3-26 2-32 14h-1zM0 497c10 2 20 7 26 15h-2c-6-7-15-12-24-14v-1z"/>
  </g>
  <path fill="#d89929" d="M230 29c2-4 6-7 10-8-2 4-6 8-10 8zM16 32h2v1h2c3 3 6 5 10 6l-1 2-13-9zm8 2h2l1 2-3-2zm420 72c3-2 3-7 7-9 2 0 2 3 2 4l-5 8c-2 1-5 0-4-3zM63 118c4-4 8-8 14-9 3 0 4 3 2 5-4 5-10 9-17 8l1-4zm286 12c3-6 10-10 17-12h1c-2 4-6 6-9 8s-6 4-9 4zm14-5zm-6 4c1-1 1-1 0 0zm85 28c4-1 7 2 8 5 2 2 3 6 1 8-6 1-13-8-9-13zm9 2h1v2l-1-2zm-393 7c4-2 8 1 10 4 3 4 4 10 0 13-1 2-4 2-6 1-3-1-6-4-7-7-2-4 0-9 3-11zm288 39c2-1 5-1 6 1 4 3 9 8 7 13-3 1-5-2-8-4-2-3-5-6-5-10zm0 6c1 1 1 1 0 0zm4 5c-1-1-1-1 0 0zm0 0l1 1-1-1zm1 1l1 1-1-1zm1 1zm-128 8c6-1 10 5 9 10s-6 8-11 6c-5-4-5-14 2-16zm203 4c4 0 10 0 10 4-1 7-10 10-16 7-2-1-3-4-2-6 2-3 5-4 8-5zm-159 32c8-2 13 8 10 14-3 4-10 3-12-2-3-3-3-10 2-12zm221 26l3 3c2 5 2 11 3 16-2 0-2-2-3-3-2-5-3-10-3-16zm0 13c1 0 2 1 1 3-1-1-2-2-1-3zM83 358c1-3 3-5 6-6-1 6-5 12-10 15 0-4 2-7 4-9zm265 38h4l8 1v3c-4 2-11 1-12-4zm-42 16l3 2c1 4-1 7-4 9-1 1-4 2-5 0-1-5 2-10 6-11zm-231 5c2-1 3-4 6-4 1 3 0 6-1 9s-3 6-6 7c-2-4-1-8 1-12zm319 56c1-2 1-5 3-6l-2 15-3 12c-1-7 1-14 2-21zm-236 21c6-4 12-6 18-8v3c-6 4-12 7-19 9h3v1h-3v1l3 1h-5l-1 5 1-6-1-5 2 3 2-4zm92 4c-1-5 4-9 8-11 1 5-3 9-8 11zm-161 6l3-2c6 0 13 0 18 3-2 2-5 2-7 2-5 0-10-1-14-3z"/>
  <path fill="#cab269" d="M494 285l1 1-1-1z"/>
  <path fill="#cbbe9f" d="M92 511c1-1 2 0 3 1h-3v-1z"/>
  <circle cx="142.2" cy="97.1" r="16.4" fill="#fadb86" fill-opacity=".5"/>
  <circle cx="436.9" cy="397.6" r="16.4" fill="#fadb86"/>
  <circle cx="-440.3" cy="-41.6" r="7.8" fill="#fadb86" transform="rotate(180)"/>
  <circle cx="-49.7" cy="-230" r="7.8" fill="#fadb86" transform="rotate(180)"/>
  <circle cx="142.2" cy="435.7" r="9.5" fill="#fadb86" fill-opacity=".6"/>
  <circle cx="239.2" cy="329.4" r="9.5" fill="#fadb86"/>
  <circle cx="-22" cy="-461.1" r="7.8" fill="#fadb86" transform="rotate(180)"/>
  <circle cx="-187.2" cy="-128.3" r="7.8" fill="#fadb86" transform="rotate(180)"/>
  <circle cx="-452.5" cy="-332.3" r="7.3" fill="#fadb86" transform="rotate(180)"/>
</svg>
