<svg
  xmlns="http://www.w3.org/2000/svg" id="Layer_1" x="0" y="0" version="1.1" viewBox="0 0 1400 980" xml:space="preserve">
  <defs/>
  <style>.st1{fill:#ffcd31}.st2{fill:#f6b319}.st3{fill:#ffd459}.st4{fill:#fff799}.st5{fill:#4d4d4e}.st6{fill:#d79829}.st7{fill:#fadb86}</style>
  <switch>
    <g>
      <path fill="#fce9c0" d="M0 0h1400v980H0z"/>
      <path d="M413 303c31-25 84-117 0-211-23 9-54 35-61 60 0 0 40 60 1 87s-66-1-66-1c-39 5-55 35-55 35 51 83 131 72 181 30z" class="st1"/>
      <path d="M413 303c18-14 43-50 45-95-8 32-26 56-40 68-48 39-123 51-173-18-9 8-13 15-13 15 51 83 131 72 181 30z" class="st2"/>
      <path d="M347 262c50-20 46-69 37-92-8-23 12-51 33-40 19 11 38 46 40 52-3-28-16-59-44-90-23 9-54 35-61 60 0 0 40 60 1 87s-66-1-66-1c-20 2-34 11-42 20 49-32 53 24 102 4z" class="st3"/>
      <path d="M414 93s-37 28-61 59c0 0 8-36 61-59zM287 237s-31 13-55 36c0 0 16-31 55-36zM448 180c0-2 12 57-51 102 0 0 48-42 51-102z" class="st4"/>
      <path d="M414 305a142 142 0 0039-152c-9-23-22-43-38-61l-1-1c-22 8-41 24-54 42l-7 14c-1 2-2 4-1 6 1 5 4 8 6 12 7 15 13 34 10 50-6 23-33 37-55 33-8-1-15-4-21-8l-4-4c-3-1-5 0-8 1-17 4-33 13-45 27l-5 8 2 4a140 140 0 0068 56c39 12 82-2 114-27 1-1-1-3-2-2-20 15-44 27-69 30-26 3-53-4-74-20-13-10-24-22-33-36l-1-2-2-2 1-2 7-9a75 75 0 0144-23h1l8 5c9 6 20 9 31 7 14-1 30-9 38-20 14-18 8-43 0-62l-5-11-4-6 1-3 6-12 16-19a122 122 0 0130-21l6-2a178 178 0 0135 55 142 142 0 01-36 153c-2 1 0 3 2 2z" class="st5"/>
      <path d="M1295 0l-2 2c-39 27-67-1-67-1-38 5-54 35-54 35 50 83 130 72 181 30 14-11 31-35 40-66h-98z" class="st1"/>
      <path d="M1387 0c-9 18-20 31-30 38-48 40-122 51-173-17-9 8-12 15-12 15 50 83 130 72 181 30 13-11 31-35 40-66h-6z" class="st2"/>
      <path d="M1295 0l-2 2c-39 27-67-1-67-1-19 2-33 11-42 20 50-32 53 24 103 4 15-6 25-15 32-25h-24z" class="st3"/>
      <path d="M1226 0s-31 13-55 36c0 0 17-31 55-36zM1371 0c-15 28-34 45-34 45 20-14 32-30 40-45h-6z" class="st4"/>
      <path d="M1392 0a135 135 0 01-41 66c-19 15-43 27-69 30s-52-4-73-20c-13-10-24-22-33-36l-2-3-1-1 1-2 7-9a75 75 0 0143-23h2l7 5c10 6 21 8 32 7 12-1 24-6 33-14h-5c-11 9-27 13-40 11-8-1-15-4-21-8l-4-3h-9c-18 4-33 14-44 27l-5 8 2 4a140 140 0 0067 56 126 126 0 00152-85l4-10h-3z" class="st5"/>
      <path d="M722 295c33-84-26-151-48-164-19-11-39-22-60-28-22-5-55-5-75 5 4 29 11 61 30 82 18 2 53 4 75 39 6 9 11 65-49 64-20 19-9 63 0 74 40 2 106-19 127-72z" class="st1"/>
      <path d="M722 295c22-57 2-106-20-136 15 30 24 69 6 114-20 51-81 73-122 72 2 10 6 18 9 22 40 2 106-19 127-72z" class="st2"/>
      <path d="M665 238c-5-41-44-62-71-73s-38-44 0-50c38-5 80 16 80 16-19-11-39-22-60-28-22-5-55-5-75 5 4 29 11 61 31 82 17 2 52 4 74 39 6 9 11 65-49 64-13 12-13 35-9 52 0 0 1-40 28-44 27-5 57-22 51-63z" class="st3"/>
      <path d="M539 108l31 82s-29-26-31-82zM595 293s-23 25 0 74c0 0-14-35 0-74zM682 162s45 40 13 110c0 0 17-68-13-110z" class="st4"/>
      <path d="M723 295c17-43 11-90-14-129-8-12-18-24-29-33l-27-16c-13-6-26-12-39-15-24-7-53-6-76 5v1c3 23 7 46 19 67l8 12c3 4 4 4 9 5l21 4c19 4 39 16 48 34 4 8 3 19 2 27a40 40 0 01-35 33l-8 1-7 1c-3 0-5 5-7 7l-4 12c-4 16-1 34 5 49l4 8c2 2 6 1 9 1l24-2c41-8 81-32 97-72 1-2-2-3-3-1-11 29-36 49-64 60a154 154 0 01-56 12c-3 0-4 0-5-2l-4-7c-4-12-7-26-5-38 0-7 2-15 6-20l3-4 6-1 9-1c20-3 35-17 38-37 1-7 1-14-1-21-2-10-9-18-16-24-9-9-21-15-34-18a136 136 0 00-23-4c-4-1-6-3-8-6-11-14-17-32-21-49l-3-13c0-3-3-10-1-13 2-2 9-3 11-3l14-3c16-2 34-1 50 3 19 6 38 16 55 26 18 11 31 29 41 46a135 135 0 018 117c0 2 3 3 3 1z" class="st5"/>
      <path d="M1400 435l-24 4c-22 5-51 21-64 39 17 23 38 49 65 58l23-8v-93z" class="st1"/>
      <path d="M1400 502l-13 1c-29 2-54-22-23-44 11-8 24-13 36-17v-7l-24 4c-22 5-51 21-64 39 17 23 38 49 65 58l23-8v-26z" class="st3"/>
      <path d="M1312 478s35 33 65 58c0 0-37-9-65-58z" class="st4"/>
      <path d="M1400 527l-13 4-7 2c-4 2-8-1-12-3-15-7-28-20-39-33l-9-11-4-5c-2-3-2-3 0-6 5-6 12-11 19-16a124 124 0 0165-22v-3l-11 1c-29 4-60 18-78 42v2c12 17 25 33 42 46l14 8c2 1 7 5 11 4l9-3 12-4h1v-3z" class="st5"/>
      <path d="M445 369c-48-12-120-4-157 64 0 20 28 47 51 54 18 6 22-1 29-14 11-20 46-31 68-13 13 11 32 40 1 74-11 12 12 86 24 86 5-1 10-4 14-7 35-30 65-72 65-118 1-71-46-115-95-126z" class="st1"/>
      <path d="M452 371c34 20 61 58 61 112 0 46-29 88-65 118 4 11 9 19 13 19 6-1 10-4 14-7 36-30 65-72 66-118 0-67-43-111-89-124z" class="st2"/>
      <path d="M439 442c-43-24-79 7-93 11-14 5-46-26-8-56 33-27 67-32 74-33-44-1-95 15-124 69 0 19 28 47 52 54 18 5 21-1 28-14 12-21 46-31 68-13 13 10 32 40 1 74-7 8 1 44 11 67v-1c0 1-2-55 9-70s25-64-18-88z" class="st3"/>
      <path d="M288 433s4 31 35 46 34 9 38 5c0 0-45 3-73-51zM437 534s-4 2-3 17l9 38c7 24 17 33 22 30 0 0-25-25-28-85zM422 380s70 9 86 97c0 0-22-74-86-97z" class="st4"/>
      <path d="M286 433c1 14 11 27 21 36 11 10 26 20 41 21 15 2 17-11 25-21 10-13 28-19 44-16 14 3 25 12 31 24 7 16 4 33-5 47-3 5-8 9-10 14v13a158 158 0 0020 64c2 2 4 5 7 6 5 2 11-3 15-6 29-23 54-55 63-90 9-34 3-72-15-101-15-25-39-44-67-54-53-18-119-4-155 41l-14 21c-1 2 1 3 2 2 16-28 40-50 70-60 26-9 53-10 79-5a123 123 0 01101 134c-3 38-25 70-51 96-6 6-13 14-21 18-6 2-8 1-11-3a161 161 0 01-20-62v-13c2-5 7-9 10-14 8-12 12-26 8-40-3-10-8-19-16-26-21-17-57-10-71 13-3 5-5 12-11 15-6 2-15-1-21-3-15-6-29-18-38-32-4-5-7-12-8-19 0-2-3-2-3 0z" class="st5"/>
      <path d="M813 980c-18-24-44-40-70-46-44-11-107-5-146 46h216z" class="st1"/>
      <path d="M794 980h19c-16-22-39-37-63-44 17 10 33 25 44 44z" class="st2"/>
      <path d="M620 980c3-6 8-12 15-18 34-27 67-32 75-32-39-1-83 11-113 50h23z" class="st3"/>
      <path d="M770 980h9c-26-31-59-35-59-35 21 8 37 21 50 35z" class="st4"/>
      <path d="M599 980c15-19 35-33 58-41 25-9 53-10 79-5a123 123 0 0175 46h4c-15-21-37-37-61-45a144 144 0 00-159 45h4z" class="st5"/>
      <path d="M0 447v217c31-29 55-67 55-109 0-50-24-87-55-108z" class="st1"/>
      <path d="M0 447v13a130 130 0 010 161v43c31-29 55-67 55-109 0-50-24-87-55-108z" class="st2"/>
      <path d="M0 481v11c16 24 23 46 23 46-4-25-13-43-23-57z" class="st4"/>
      <path d="M38 484c-10-16-23-29-38-39v3a124 124 0 0153 116c-3 37-24 69-50 95l-3 3v4c24-22 44-50 53-81 9-34 3-71-15-101z" class="st5"/>
      <path d="M241 678c-82-59-161-30-175-13-33 31 1 77 40 69 22-5 42-13 66 0 8 5 43 24 30 51-7 26 18 60 59 51 75-52 18-132-20-158z" class="st1"/>
      <path d="M241 678v-1c18 23 40 66 15 118-10 21-20 33-28 39 9 4 20 5 33 2 75-52 18-132-20-158zM172 734c7 5 43 24 30 51-2 6-2 12-1 18h1c10-28 17-49-13-70a68 68 0 00-79 0c20-5 39-11 62 1z" class="st2"/>
      <path d="M193 724c-34-21-67-13-82-13s-36-27 0-48c37-21 91-7 91-7-67-28-124-6-136 9-33 30 1 77 40 69 22-5 42-13 66 0 8 5 43 24 30 51-2 7-2 15 1 22 23-31 22-64-10-83z" class="st3"/>
      <path d="M67 696c-1-19 5-33 17-43-9 4-15 8-18 12-33 31 1 77 40 69 0 0-38-6-39-38zM261 836l5-4c-38 0-57-25-65-43-4 26 21 56 60 47zM117 653c-5-1 105-9 140 82 0 0-48-66-140-82z" class="st4"/>
      <path d="M242 676c-45-31-106-47-158-25-16 7-31 20-33 38-2 22 16 42 37 46 14 3 27-2 40-5 17-3 32-1 46 7 8 5 17 12 23 20 3 4 6 10 6 16s-3 11-4 16c-3 22 13 41 33 48 6 2 12 2 18 2l10-1 9-6c10-8 19-18 24-31 19-42-9-89-41-117l-10-8c-2-1-3 2-1 3 16 11 29 27 40 44 11 18 18 40 14 62-2 12-7 23-15 32-5 6-10 11-16 15-6 5-15 4-22 4-22-3-42-21-40-45l4-15-2-13c-4-9-11-16-18-21-8-6-16-11-24-13-14-5-28-3-42 0-13 3-26 7-39 2-11-5-20-13-24-24-8-19 3-39 20-49s37-13 56-14a172 172 0 01107 35c2 1 4-2 2-3z" class="st5"/>
      <path d="M1400 881c-60-19-110 1-121 15-33 30 1 77 40 69 23-5 42-13 66 0l15 10v-94z" class="st1"/>
      <path d="M1400 962a69 69 0 00-77 2c21-5 40-11 62 1l15 10v-13z" class="st2"/>
      <path d="M1400 951c-32-16-62-9-76-9s-36-27 1-48c24-15 56-13 75-10v-3c-60-19-110 1-121 15-33 30 1 77 40 69 23-5 42-13 66 0l15 10v-24z" class="st3"/>
      <path d="M1280 927c-1-19 6-33 17-43-9 4-15 8-18 12-33 30 1 77 40 69 0 0-38-7-39-38zM1400 896c-37-16-72-13-70-12 27 4 51 14 70 24v-12z" class="st4"/>
      <path d="M1400 973l-1-1c-7-5-15-10-24-13-14-4-28-3-42 1-13 3-25 6-39 1-10-4-19-12-24-23-8-19 3-39 20-49s38-13 57-14c18 0 36 2 53 8v-3c-33-11-70-12-102 2-16 7-31 20-33 38-3 22 15 42 36 46 14 3 27-3 41-5 16-3 31-1 45 7l13 9v-4z" class="st5"/>
      <path d="M297 0c3 7 3 14-1 22-7 26 19 60 60 51 31-22 39-48 36-73h-95z" class="st1"/>
      <path d="M361 0c-2 10-5 20-10 31-11 22-20 34-29 39 10 4 21 5 34 3 31-22 39-48 36-73h-31zM297 0c3 7 3 14-1 22v18c6-15 10-28 9-40h-8z" class="st2"/>
      <path d="M297 0c3 7 3 14-1 22-2 7-1 15 2 22 10-15 16-30 15-44h-16z" class="st3"/>
      <path d="M356 73l5-4c-39 0-57-25-65-43-4 25 21 56 60 47z" class="st4"/>
      <path d="M390 0v22c-2 12-8 23-15 32l-16 15c-6 4-15 4-22 4-22-3-42-22-40-45 0-5 3-10 4-15l-2-13h-4c2 3 3 6 3 10 0 6-3 10-4 16-3 21 13 41 32 47 6 2 13 3 19 3l10-1 9-6c10-8 19-19 24-31 6-12 7-25 6-38h-4z" class="st5"/>
      <path d="M442 773c-36-43-81-38-81-38-16 21-27 49-24 77 27-2 60 19 35 45-24 25-71 6-71 6s-24 0-44 24-14 36-14 36c85 63 159 29 189-3 38-40 46-104 10-147z" class="st1"/>
      <path d="M390 766c43 7 65 28 65 28h1c-4-8-8-15-13-21-36-43-82-38-82-38-16 21-27 49-23 77 26-2 59 19 35 45-20 20-54 12-67 8 30 15 76 17 93-2 21-22-5-51-25-63s-27-42 16-34z" class="st3"/>
      <path d="M258 887l-7 8 4 4c2 2 6 1 9 0 12-3 23-8 34-13 7-4 15-9 16-18v-1l-13-4s-23 0-43 24z" class="st3"/>
      <path d="M321 928c-27-12 6-59-41-29-21 12-30 11-34 6-5 12-3 18-3 18 85 63 159 29 190-3 29-31 40-77 27-116 6 120-116 134-139 124z" class="st2"/>
      <path d="M286 877c-6-6-36 25-32 33 2 6 39-26 32-33z" class="st6"/>
      <path d="M303 867s3 28-47 55c0 1 26-4 42-27 15-23 5-28 5-28zM361 735s-25 28-23 77c0 0 5-42 23-77zM426 769s30 28 22 78-57 64-57 64 85-45 35-142z" class="st4"/>
      <path d="M287 876c-5-4-13 3-17 6-7 6-14 14-17 22-2 6 0 10 5 7 8-3 15-10 21-16 3-4 13-13 8-19-1-2-4 1-2 2 3 4-9 16-12 18l-10 9c-1 1-6 5-8 4-4-1 9-16 10-18l11-10c1-1 7-5 9-3 1 1 3-1 2-2z" class="st5"/>
      <path d="M300 864c5 5 1 12-1 17-4 8-10 14-16 20-6 7-13 12-20 17-5 3-13 7-19 4-1-1-3 1-1 2 10 6 25-5 32-11 12-10 24-22 29-36 2-5 2-11-2-15-1-1-3 1-2 2z" class="st5"/>
      <path d="M444 772c-17-20-40-34-65-37-5-1-11-2-17-1-2 0-3 2-5 4l-12 21c-8 17-11 35-9 53l2 2c18-1 53 13 38 37-13 19-39 20-60 15l-14-4c-3-1-7 1-10 1-22 5-41 23-49 44-1 4-3 11-1 16l4 4c6 4 13 9 20 12 22 13 47 21 72 21 37 0 75-15 100-44 30-35 39-89 16-130l-10-14c-2-2-4 0-3 2 33 39 28 98-3 137-23 29-62 46-99 46a151 151 0 01-92-33c-2-2-3-1-3-4-1-9 4-17 8-24 8-11 18-21 30-26 5-3 13-6 19-5h1l7 2c8 3 16 4 25 4 10 1 20-1 29-6 9-4 19-14 19-25 2-21-28-30-44-30l1 2c-2-16 1-31 6-46 3-7 6-14 11-20l5-8 1-1 5-1 10 1c10 2 19 4 28 8 14 7 26 17 36 29 2 1 4-1 3-2z" class="st5"/>
      <path d="M1400 145c-30-19-58-16-58-16-16 20-27 48-24 76 27-1 60 20 35 45-24 26-71 7-71 7s-23-1-44 23c-20 24-14 37-14 37 74 54 140 35 176 8V145z" class="st1"/>
      <path d="M1355 193c-20-12-27-41 16-34l29 8v-22c-30-19-58-16-58-16-16 20-27 48-24 76 27-1 60 20 35 45-19 20-53 12-66 9 29 14 76 16 93-2 21-23-5-52-25-64z" class="st3"/>
      <path d="M1238 280l-6 9 3 4h10c12-3 23-8 34-14 7-4 15-9 16-17v-1l-13-4s-23-1-44 23z" class="st3"/>
      <path d="M1400 297c-36 28-84 30-99 24-26-11 7-58-40-29-21 12-30 12-34 6-6 12-3 18-3 18 74 55 140 36 176 9v-28z" class="st2"/>
      <path d="M1267 270c-6-6-36 25-32 34 2 5 38-27 32-34z" class="st6"/>
      <path d="M1284 261s2 27-47 55c0 0 26-4 42-28 15-23 5-27 5-27zM1342 129s-25 27-24 76c0 0 6-42 24-76zM1400 281c-13 16-28 23-28 23s14-4 28-15v-8z" class="st4"/>
      <path d="M1268 269c-5-4-14 4-17 7-7 5-14 13-18 22-1 5 0 10 6 7 8-4 15-11 21-17 3-3 13-13 8-19-1-1-4 1-2 2 3 5-10 16-12 19l-10 8c-2 2-6 5-8 5-4-1 9-17 10-18l11-10c1-1 7-5 9-4 1 2 3 0 2-2z" class="st5"/>
      <path d="M1281 258c5 4 1 12-1 16-4 8-10 15-16 21s-13 12-21 16c-4 3-12 7-18 4-1-1-3 2-1 3 10 5 24-6 32-12 12-9 24-22 29-36 2-5 2-10-2-14-1-2-3 1-2 2z" class="st5"/>
      <path d="M1400 323c-23 18-52 27-80 27a151 151 0 01-92-33c-2-1-3-1-3-4-1-8 4-17 8-23 8-12 18-21 30-27 5-2 13-5 19-5l1 1 7 2 24 4c11 0 21-1 30-6s18-14 19-25c2-21-26-31-43-30-2-15 1-30 6-44l10-21 6-8 1-1h5l10 1a93 93 0 0142 16v-3a101 101 0 00-57-17c-2 0-3 3-5 5a99 99 0 00-21 74l2 1c18-1 53 13 38 37-13 19-39 20-60 16l-14-5-10 2c-22 5-41 23-49 43-1 5-3 11-1 16l4 4 20 13c22 12 47 20 72 20 29 1 58-9 81-26v-4z" class="st5"/>
      <path d="M1079 683c-4-19-59-114-155-109-43 2-93 27-110 66-18 39-9 99 31 125 25-9 52-34 56-53-17-10-26-37 0-52 13-8 44-13 70 7 7 6 12 13 12 22h1c0 2 3 4 7 5 4 0 85 6 88-10v-1z" class="st1"/>
      <path d="M901 660c13-8 44-13 70 7 7 5 12 13 12 22h1c0 2 3 4 7 5 4 0 85 6 88-10v-1c-1-5-5-15-13-27-20 1-48 2-66-2-30-7-67-36-110-8-50 33-11 77-37 85-13 5-30-4-43-13 7 19 18 36 35 47 25-9 52-34 56-53-17-10-26-37 0-52z" class="st2"/>
      <path d="M1008 684c-11 3-10 6-3 7 3 0 60 3 62-5 2-6-42-5-59-2z" class="st6"/>
      <path d="M1012 624c7-3 13-6 18-11-26-23-62-42-106-39-43 2-93 27-110 66-6 13-9 28-9 44 4 5 10 8 16 7 8 0 14-7 18-14 3-7 5-15 9-22 14-26 48-32 77-30 29 1 60 8 87-1z" class="st3"/>
      <path d="M995 680s41-12 76-3c0 0-35-22-76 3zM819 664s2-40 54-62c52-21 87-13 116 3 0 0-115-41-170 59zM901 712s-9 34-56 53c0 0 42-31 56-53z" class="st4"/>
      <path d="M985 689c-1-14-12-24-24-30-11-6-25-8-38-7-19 2-42 13-40 36 1 11 8 20 17 26v-2c-3 10-9 18-16 25a112 112 0 01-34 25c-3 1-5 2-7 0l-12-11c-6-7-12-15-15-24-16-35-13-80 14-109a140 140 0 01206 4c11 11 21 23 29 36 5 8 11 16 12 25 1 2 4 1 3-1-1-8-6-16-11-23-7-13-16-24-26-35-25-26-58-46-94-51-43-5-90 10-120 41a105 105 0 0011 149l6 4 8-4c12-5 22-13 31-23 8-7 15-17 18-27l-1-2c-10-6-16-17-16-28 1-13 12-21 23-25 12-4 25-5 37-1 15 3 35 14 36 32 0 2 3 2 3 0z" class="st5"/>
      <path d="M1077 684c-1 4-6 5-9 6l-19 3h-42l-13-1c-5 0-13-3-5-8 6-4 15-5 23-6a251 251 0 0152-1c3 0 14 2 13 7 0 2 3 2 3 1 2-12-23-12-30-12a233 233 0 00-58 6c-5 2-14 8-8 13 3 3 8 3 13 4a394 394 0 0071-3c5-1 11-3 12-9 1-1-2-2-3 0z" class="st5"/>
      <path d="M1007 683c-3 0-12 3-8 7 2 3 6 3 9 3a396 396 0 0049-1c4-1 8-1 10-3 7-7-10-8-13-9-15-1-32 0-47 3-2 0-1 3 1 3l32-3c3 0 26 0 26 3s-17 4-19 4h-42c-1 0-4-1-3-2l6-2c2-1 1-3-1-3z" class="st5"/>
      <path d="M1292 520c-2-8-16-61-65-84-18-9-52-13-71-6-80 29-76 116-70 144 33 4 60 5 85-1-12-53 16-54 20-53 30 9 27 38 27 52v1c1 4 8 9 18 13 13 5 42 10 56 5 5-2 6-4 6-7 3-20-1-42-6-64z" class="st1"/>
      <path d="M1292 591c5-2 6-4 6-7 2-14 1-28-2-42-12-1-25-3-34-12-48-44-70-35-94-23-9 4-42 39-57 44-9 3-19 3-28 0 0 10 1 18 3 23 33 4 60 5 85-1-12-53 16-54 20-53 30 9 27 39 27 52v1c1 4 8 9 17 13 14 6 43 10 57 5z" class="st2"/>
      <path d="M1227 436c-18-9-52-13-71-6-34 13-53 35-63 60l18-3c19-4 38-14 57-19 16-4 33-5 49-3 18 3 36 9 54 10-10-15-24-30-44-39z" class="st3"/>
      <path d="M1108 495c-3 3 19-43 72-45s78 40 78 40-71-75-150 5zM1086 574s58 8 85-1l-85 1zM1220 569s5-6 26-4c20 3 41 5 47 12 0 0-4-12-41-15-26-3-32 7-32 7z" class="st4"/>
      <path d="M1277 569c-8-2-63-14-60 4 1 6 8 10 13 12 7 4 14 6 21 7 13 3 30 5 43-1 5-2 8-6 4-11-5-6-14-9-21-11-2-1-2 2-1 3 7 1 13 4 18 8 2 2 4 4 2 7-2 2-6 3-9 3-11 3-24 1-36-1l-14-4c-5-2-16-6-17-12-1-8 19-7 24-7l33 6c1 0 2-3 0-3z" class="st5"/>
      <path d="M1274 577c-8-2-25-5-30-4-6 0-30 5 13 14h20c16-2 5-7-3-10z" class="st6"/>
      <path d="M1300 584a193 193 0 00-15-88c-12-27-33-52-61-63-16-7-35-9-52-8-16 2-31 9-44 18-22 15-36 39-42 65-6 22-6 45-2 67l2 1c28 3 58 5 86-1l1-2c-3-15-8-42 10-50 14-6 28 10 32 22 2 9 2 19 2 28 0 2 3 2 3 0 0-20-1-43-23-52-11-5-22 0-27 11-6 13-3 28 0 42l1-2c-28 6-57 4-85 1l1 1c-8-42 1-92 33-121 11-10 26-19 41-23 16-4 35-2 51 2 30 8 53 32 67 59a189 189 0 0118 94c0 1 3 1 3-1z" class="st5"/>
      <path d="M1275 576c-10-3-22-6-32-5l-12 4c-4 4 4 7 7 9 13 4 29 7 42 4 3 0 8-2 6-6-2-3-8-5-11-6-2-1-3 2-1 3s5 1 7 3c3 1 2 2-1 3-7 2-16 1-23 0-2 0-24-4-24-8 1-2 9-3 10-3 10-1 22 2 31 5 2 0 2-2 1-3z" class="st5"/>
      <path d="M702 592c-6-5-50-38-103-26-19 4-48 22-59 39-45 72 11 138 33 157 29-18 51-34 67-54-42-34-21-52-17-54 29-12 45 14 53 24l1 1c3 3 12 3 22 0 13-4 39-18 47-31 3-5 3-8 1-9-11-18-27-33-45-47z" class="st1"/>
      <path d="M746 648c2-5 3-8 1-9-7-12-17-23-28-33-10 8-22 14-34 13-64-6-76 15-88 39-5 8-9 57-18 69-5 8-13 15-22 18l16 17c29-18 51-34 67-54-42-34-21-52-17-54 29-12 45 14 53 24l1 1c3 3 12 3 22 0 13-4 39-18 47-31z" class="st2"/>
      <path d="M599 566c-19 4-48 22-59 39-19 31-20 60-13 86l13-13c12-16 21-35 33-51 10-13 22-24 37-32 15-9 34-16 48-26-17-6-37-8-59-3z" class="st3"/>
      <path d="M542 686c0 3-11-46 29-80s86-17 86-17-102-15-115 97zM573 762s51-30 67-54l-67 54zM676 675s0-8 18-19c17-10 36-22 44-19 0 0-10-8-41 12-23 15-21 26-21 26z" class="st4"/>
      <path d="M721 639c-13 6-25 13-36 22-5 3-18 16-7 21 6 2 15 0 21-2l20-8 20-14c4-4 9-9 10-15 2-14-23-6-28-4-2 1-1 4 1 3 4-1 28-9 24 2s-18 19-28 25c-10 5-23 12-35 11-15-2 4-17 8-20 10-7 20-13 31-18 2-1 0-3-1-3z" class="st5"/>
      <path d="M724 648c-9 3-23 11-27 15-5 5-20 23 18 3 7-3 13-8 17-12 11-11-1-9-8-6z" class="st6"/>
      <path d="M748 638a182 182 0 00-58-56c-25-15-54-23-83-20-15 2-28 8-41 17-13 8-24 18-31 32-16 28-18 60-6 90 9 23 24 45 43 62h2c25-15 49-32 67-54v-2c-11-10-32-28-23-45 7-14 28-10 39-3 8 6 13 14 19 21 1 1 3-1 2-2-13-16-27-33-50-27-11 3-17 13-14 25 3 13 15 24 25 33v-2a254 254 0 01-64 53c-38-32-62-85-44-134 6-15 15-28 28-38 11-9 25-17 39-21 29-7 60 0 85 14a183 183 0 0163 59c1 1 3 0 2-2z" class="st5"/>
      <path d="M723 647c-9 3-20 9-28 16-2 2-6 6-6 10-1 6 7 4 10 2 13-4 27-11 36-22 2-2 5-6 1-8-3-2-9 1-13 2-2 0-1 3 1 3l7-2 3-1v2c0 2-5 6-7 8l-9 7c-2 1-25 13-26 10-1-2 4-8 5-9 7-7 18-12 27-15 2-1 1-4-1-3z" class="st5"/>
      <path d="M1160 307c8-34 7-75-25-115-17-22-77-61-109-54-14-1-12 97 11 87 30 6 38 30 38 54 0 11-8 26-17 34-9 7-23 10-33 5h-1l-2-1c-21-9-56 62-37 74l3 1c16 10 49 21 71 16 43-8 87-43 101-101z" class="st1"/>
      <path d="M1092 333c8-5 13-14 18-22 9-16 18-33 18-52 0-18-9-35-13-53-2-10 2-20 5-29-25-21-68-45-94-39-14-1-12 97 11 87 30 6 38 30 39 54 0 11-9 26-18 34-9 7-22 10-33 5l-2-1c-7-3-16 3-24 12a261 261 0 0059 10c11 1 24 0 34-6z" class="st3"/>
      <path d="M1088 248c-8-13-22-21-27-35-1-3-2-7-4-9-4-3-10-1-14 2s-6 8-9 12l-7 4c3 3 6 4 10 3 30 6 38 30 38 54 0 11-8 26-17 34-9 7-23 10-33 5h-1l-2-1h-7l28 7c30 6 67-42 45-76z" class="st2"/>
      <path d="M1059 408c43-8 87-43 101-101a129 129 0 00-30-121c10 21 17 45 18 69 1 44-19 90-56 114-10 6-21 10-32 9-11 0-22-7-25-18-1-3-1-6-4-8-5-3-9 5-12 9-7 8-20 8-30 8h-9c-2 10-1 18 4 21l4 2c17 10 49 20 71 16z" class="st2"/>
      <path d="M1025 158c-7 3-4 64 9 61 9-2 1-64-9-61zM1016 333c-8-5-33 43-26 50 6 6 19-16 21-21 7-15 9-26 5-29z" class="st6"/>
      <path d="M1066 151c-3-2 80 33 86 97 0 0-20-50-86-97zM1035 145s17 29 5 76c0 0 24-46-5-76zM1030 333s1 15-7 29c-8 13-14 23-24 29 0 0 40-15 31-58z" class="st4"/>
      <path d="M1024 157c-3 1-3 5-3 8l-1 16c0 11 1 25 7 35 3 6 10 6 12-2 2-11 0-23-2-34-1-5-4-25-13-23-2 0-1 3 1 3 5-1 8 16 9 18 2 10 3 21 2 31 0 2 0 7-2 8s-4-2-5-4c-5-9-5-19-6-29v-16c0-1 0-7 2-8s1-4-1-3zM1017 332c-5-3-11 6-14 9-6 9-11 18-14 28-1 4-5 14 2 16 8 2 16-13 19-18 4-6 7-13 9-20 1-4 2-12-2-15-1-1-3 1-2 2 5 4 0 16-2 19l-7 16c-3 4-6 10-11 12-4 3-5 0-5-4 1-9 6-18 11-26 1-3 10-19 14-16 2 0 4-2 2-3z" class="st5"/>
      <path d="M1026 137c-9 0-10 21-10 27-1 16 0 34 5 49 2 5 4 11 9 13 4 2 8 1 10-3 4-4 5-12 5-17l1-28c-1-10-3-20-6-29-3-5-7-11-14-12v3c6 1 9 7 11 12 3 6 4 14 5 21 2 14 2 31-2 44-1 4-3 8-7 7-5-1-7-7-8-10-5-13-6-28-6-42 0-7 0-15 2-22 0-3 2-10 5-10 2 0 2-3 0-3zM1023 316c-10-5-20 6-26 13-9 12-16 26-18 40-2 10-2 23 11 25 15 2 26-16 32-27 5-9 9-19 10-30 0-8-1-18-9-22-2 0-3 2-1 3 7 4 7 14 6 21-1 8-4 17-8 25-5 10-14 26-27 27s-13-13-11-22c2-12 8-24 14-34 5-7 16-21 26-17 2 1 3-2 1-2z" class="st5"/>
      <path d="M1024 319c27 12 54-17 53-44-1-11-3-22-9-32-7-11-18-17-31-20-2 0-2 3-1 3 12 3 22 8 29 18 5 8 8 18 9 28 1 12-3 24-11 34-9 10-24 16-37 10-2 0-4 2-2 3z" class="st5"/>
      <path d="M1027 140c12-3 24 1 36 5a195 195 0 0168 44c12 13 21 29 26 46 19 62-12 134-70 162-14 7-30 12-46 10-18-1-37-7-52-16-2-1-3 1-2 2 14 8 31 14 47 16 15 3 29 1 44-5 29-11 53-32 68-59 17-29 23-65 17-98-4-19-13-37-24-53a208 208 0 00-71-50c-13-6-28-10-42-7-2 0-1 3 1 3z" class="st5"/>
      <path d="M926 340v-1c-19-40-68-54-110-41-15 5-58 30-77 86-17 54-9 129 49 164 13 8 30 4 43-5 13-10 23-33 10-49l-5-4a76 76 0 01-22-92c6-14 25-30 41-19 10 8 32 11 43 8 19-6 36-29 28-47z" class="st1"/>
      <path d="M881 337c-8 4-15 10-23 15-21 12-50 12-66 31-11 13-12 31-9 48 2 12 6 24 1 35-6 15-27 18-41 11l-8-5c7 30 23 58 53 76 13 8 30 4 43-5 13-10 23-33 9-49l-4-4a76 76 0 01-22-92c6-14 25-30 41-19 10 8 32 11 43 8 19-6 36-29 28-47v-1l-1-2h-1c-13-5-29-7-43 0z" class="st2"/>
      <path d="M914 353c-1-3-5-16-22-13-9 1-18 6-22 13-8 15 4 22 15 23 11 0 32-10 29-23zM801 501c-6 7-9 17-7 23 1 6 10 8 16 8s12-4 15-10c3-5 4-12 1-18-7-16-19-8-25-3z" class="st6"/>
      <path d="M816 298c-15 5-58 30-77 86-3 11-6 23-7 35 22 6 25-20 31-36 10-29 32-50 61-61 25-9 52-11 78-12a99 99 0 00-86-12z" class="st3"/>
      <path d="M738 457s-5-52 22-91c28-40 57-61 100-61 1 0-99 2-122 152zM905 326s-17-4-27 2c-10 7-25 19-27 40 0 0-9-28 20-45 21-11 34 3 34 3zM817 484s-18-1-30 17c-13 19-8 36-8 36s-16-11 1-37c14-23 37-16 37-16z" class="st4"/>
      <path d="M888 323c-17 4-30 16-36 31-3 6-4 13-2 19 1 6 7 10 12 12 13 6 31 7 45-1 14-7 27-25 22-42-5-16-26-21-41-19-2 1-1 4 1 3 11-2 29 2 35 13 9 15-3 33-16 41-12 8-26 8-39 4-6-2-13-4-16-9-2-5-1-12 0-17 5-16 19-28 36-32 2 0 1-3-1-3zM789 496c-8 10-14 24-12 37 2 16 18 22 32 20 17-2 32-13 37-29 6-15 0-32-15-39-14-6-32 0-42 11-2 1 1 3 2 2 7-9 21-14 32-12 16 3 25 17 22 32s-15 26-29 31c-14 4-33 1-36-15-2-12 3-27 11-36 1-1-1-4-2-2z" class="st5"/>
      <path d="M837 489a74 74 0 01-28-65c1-10 3-22 9-31 8-12 23-21 37-12 1 1 3-2 1-3-12-8-26-3-36 8-8 9-12 21-14 33-4 27 7 55 29 72 2 1 4-1 2-2z" class="st5"/>
      <path d="M928 339a84 84 0 00-70-47c-24-2-47 4-67 18-48 35-70 99-59 158 7 33 25 63 55 81 2 1 3-1 2-2-52-32-65-98-51-153 8-29 24-56 47-75 17-15 35-23 58-24 34-2 68 14 82 46 1 2 4 0 3-2z" class="st5"/>
      <path d="M915 353c-4-20-31-17-43-5-6 6-9 18-1 25 8 6 18 5 27 2 9-4 19-11 17-22 0-2-3-1-3 1 2 10-11 17-19 19-9 2-24 0-24-11 0-20 39-31 44-8 0 2 3 1 2-1zM800 500c-6 7-13 21-5 29 8 7 22 6 29-2 7-9 8-25-2-32-7-5-16 0-22 5-1 2 1 4 2 2 5-3 11-8 16-5 11 4 10 21 4 28-6 6-18 8-25 1-6-6 1-18 5-23 2-2 0-4-2-3z" class="st5"/>
      <path d="M62 58v-1A80 80 0 000 13v89c11 4 25 5 33 3 19-5 37-28 29-47z" class="st1"/>
      <path d="M62 58v-1l-1-1-1-1c-14-5-30-6-43 0L0 66v36c11 4 25 5 33 3 19-5 37-28 29-47z" class="st2"/>
      <path d="M50 72c-1-4-5-16-22-14-9 1-18 6-22 14-8 14 3 21 15 22 10 0 31-10 29-22z" class="st6"/>
      <path d="M0 13v18c13-2 25-2 38-2-11-8-24-14-38-16z" class="st3"/>
      <path d="M7 42l-7 4v11l14-11c10-6 27-2 27-2S27 31 7 42z" class="st4"/>
      <path d="M64 60c-4-16-25-21-40-18-9 2-17 6-24 12v4c7-7 15-11 24-13 12-2 29 1 36 12 8 15-4 33-17 42-11 7-26 7-39 3l-4-1v3c13 5 30 6 43-1 13-8 27-26 21-43z" class="st5"/>
      <path d="M63 58A83 83 0 000 12v3c26 4 49 19 61 44 1 2 3 0 2-1zM51 71c-4-20-31-17-43-5-7 7-10 18-1 25 7 6 18 5 27 2 8-4 19-11 17-22 0-2-3-1-3 1 2 10-12 17-20 19-8 3-24 1-24-11 1-20 39-30 44-8 1 2 3 1 3-1z" class="st5"/>
      <path d="M279 509c-15-21-35-29-47-18l-2 3-1 3c-6 10-26 22-52 3s-23-52-18-65l2-4c10-18-7-60-17-68-3-2-6-2-8-1-35 9-55 44-61 74-6 31 3 86 37 119 60 59 146 32 172 2 13-4 1-38-5-48z" class="st1"/>
      <path d="M123 536c9-14 2-32-4-47-6-13-12-27-14-41s0-29 8-41c6-8 14-14 21-21 5-6 8-13 12-20l-2-3c-3-2-6-2-8-1-35 9-55 44-61 74-6 28 2 77 29 111 8-1 15-5 19-11z" class="st3"/>
      <path d="M279 509c-15-21-35-29-47-18l-2 3-1 3c-6 10-26 22-52 3s-23-52-18-65l2-4c8-13 0-40-9-56-2 1-3 3-4 6-2 8 2 21-6 23l-7-1c-9 0-12 13-8 21s12 14 15 23c3 7 1 16 2 24 2 27 28 43 51 57 4 3 8 6 9 10 1 6-4 12-9 15-20 15-40 9-62 16l-3 1c58 39 130 14 154-13 13-4 1-38-5-48z" class="st2"/>
      <path d="M140 378c-5 5 1 33 10 45 4 6 8 1 8 0 3-14-11-51-18-45zM270 521c-3-6-11-21-19-20-8 0-5 17-2 26 4 8 16 20 23 17 6-3 1-16-2-23z" class="st6"/>
      <path d="M117 384s-38 24-33 85c4 61 46 89 46 89s-76-82-13-174zM133 366s-9 6-8 19 6 39 26 48c0 0-31-33-18-67zM228 506s-6 26 20 39c0 0-18-11-20-39z" class="st4"/>
      <path d="M139 377c-5 6-2 17 0 24l5 15c2 4 4 10 8 11 8 3 8-9 8-14-1-9-4-18-8-27-2-3-7-13-13-9-1 1 1 4 2 2 4-3 10 13 11 15 3 8 5 16 5 25l-1 4c-3 3-6-2-7-4a71 71 0 01-9-29c-1-3-1-8 1-11 2-1 0-3-2-2zM271 521c-3-7-12-25-22-21-9 3-4 19-2 25s6 10 10 14c3 4 8 7 13 7 12-2 4-20 1-25 0-2-3 0-2 1 2 5 10 26-3 20-8-4-14-12-16-19-2-4-6-21 2-21 4 1 8 6 11 10l6 10c1 2 3 0 2-1z" class="st5"/>
      <path d="M144 362c-13-9-15 13-15 22 0 14 5 30 13 42 3 4 8 10 13 11 6 1 8-5 9-9 4-11 1-25-2-35-4-11-9-24-18-31-1-1-3 1-1 3 8 6 12 18 15 27 4 11 7 24 4 35l-2 3c-2 4-6 4-9 1l-7-7a78 78 0 01-12-42c0-7 1-24 11-18 1 2 3-1 1-2z" class="st5"/>
      <path d="M136 360c-29 8-49 33-58 61-9 26-7 53 0 80 10 30 28 57 56 73 25 15 54 20 82 16 25-3 52-12 69-32 1-1-1-3-2-2-14 16-36 25-56 29-26 6-55 4-80-7a134 134 0 01-70-143c7-32 27-63 60-72 2 0 1-3-1-3z" class="st5"/>
      <path d="M158 435c-6 15-5 35 3 49 10 18 35 34 55 25 7-3 13-8 15-15 1-2-2-3-2-1-3 8-11 13-19 15-14 3-29-5-39-15a57 57 0 01-11-58c1-1-2-2-2 0z" class="st5"/>
      <path d="M231 490c-11 11-2 30 4 41 7 14 22 25 38 28 5 1 11 1 15-3s4-11 3-16c-1-13-7-28-16-38-10-12-29-25-44-12-1 1 1 3 2 2 12-10 28 0 37 9a68 68 0 0118 49c-2 6-7 7-13 6-13-1-28-11-35-23-6-10-17-31-7-41 2-1 0-4-2-2z" class="st5"/>
      <path d="M257 78c-22-23-70-33-114-13-35 16-56 40-76 72-12 18-16 40-17 62-2 74 50 111 64 111 6 3 14 1 18-2 19-13 26-44 17-58l-2-2c-8-14-9-33-6-48 4-25 16-44 41-50 7-1 24 0 30 13 2 7 14 13 33 9 13-2 27-7 38-14 2-2 5-4 6-7v-5c-2-24-12-46-32-68z" class="st1"/>
      <path d="M283 158c2-2 5-4 6-7v-5l-1-6c-5 1-9 4-13 7-8 6-15 13-24 17-8 4-20 5-27-2-10-10-6-29-18-37-3-2-6-3-10-3-17-3-36 2-50 13a67 67 0 00-25 46l-1 31c-1 10-6 21-15 26l-9 4c-6 5-8 13-11 20-2 6-7 13-14 13 16 23 35 35 43 35 6 3 15 1 19-2 18-13 25-44 16-58l-2-3c-8-13-9-32-6-47 4-25 16-44 41-50 7-2 24 0 30 13 3 7 14 13 33 9 14-2 27-7 38-14z" class="st2"/>
      <path d="M129 252c-6 3-10 9-11 15-4 22 9 30 13 29l8-5c5-4 11-27 4-36-4-4-10-6-14-3zM247 144c-25 6-21 17-6 19 7 1 24-4 28-9 8-10 3-17-22-10z" class="st6"/>
      <path d="M277 105c-5-9-12-18-20-27-22-23-70-33-114-13-35 16-56 40-76 72a125 125 0 00-17 70c15-8 26-23 35-38 10-21 18-44 35-60a103 103 0 0153-25c17-1 32 9 47 17 14 8 31 15 47 10 4-1 7-3 10-6z" class="st3"/>
      <path d="M66 216s-6-73 49-115c55-41 98-27 114-18 0 0-135-33-163 133zM105 299s-4-43 25-55c0 1-39 7-25 55zM225 147s38-19 56-9c0 0-24-16-56 9z" class="st4"/>
      <path d="M128 251c-10 6-14 17-12 28 1 7 4 14 10 18 6 3 13-2 16-7 5-7 6-17 6-25-1-10-10-20-20-14-2 1 0 3 1 2 7-3 13 2 15 8v14c-1 7-4 17-13 19-5 2-9-5-11-9-4-11-1-25 9-32 2-1 0-3-1-2zM246 142c-6 2-19 5-19 13 1 6 9 9 14 10 8 1 20-3 27-8 4-3 8-10 5-14-5-7-21-2-27-1-2 1-1 3 1 3 4-1 22-6 24 0 1 3-1 6-3 8-3 3-7 5-12 6-7 3-16 5-23 0-9-7 10-13 14-14 2 0 1-3-1-3z" class="st5"/>
      <path d="M105 274c-3 11-6 29 6 36 6 4 15 4 21 0 14-8 21-26 22-41 1-11-2-26-16-27-17-2-29 18-33 32 0 2 2 3 3 1 4-12 12-27 26-30 13-2 18 12 17 22 0 17-14 50-36 42-13-5-10-24-7-34 1-2-2-3-3-1z" class="st5"/>
      <path d="M148 247a78 78 0 016-77c7-10 17-16 29-18 10-2 23 2 28 12 1 2 3 0 2-2-8-17-31-16-46-8-18 11-27 32-29 52-1 14 1 30 8 42 1 2 3 1 2-1z" class="st5"/>
      <path d="M213 158c3-7 13-11 19-13 10-4 21-7 31-8 8 0 22 0 24 9 3 9-13 15-19 18-8 4-16 6-25 7-8 2-17 2-24-2-3-2-7-6-6-11 1-2-2-3-2-1-4 11 10 17 18 18 10 1 20-1 29-4 10-3 20-7 28-14 6-4 6-11 1-17-3-3-7-5-11-5-13-2-26 1-38 5-9 3-24 8-27 17-1 2 2 3 2 1z" class="st5"/>
      <path d="M114 309c-6-1-13-5-17-9-9-6-17-15-23-24a131 131 0 011-149c10-14 21-28 35-39 29-25 69-39 107-29 21 4 36 15 48 32 14 17 22 38 23 60 0 2 3 2 3 0-1-19-7-38-18-54a91 91 0 00-40-37c-37-15-79-6-112 15-15 11-28 24-39 38a139 139 0 00-16 157c7 12 16 23 27 31 6 5 13 10 21 11 2 0 2-3 0-3z" class="st5"/>
      <path d="M1075 0H883c-7 8-13 17-19 27-12 19-16 41-17 63-3 74 50 110 63 111 7 3 15 1 19-2 19-13 26-44 17-58l-2-3c-8-13-9-32-7-47 5-26 16-44 41-50 8-2 25 0 31 13 2 7 13 13 33 9 13-3 26-7 37-15 3-2 6-4 7-7l-1-5c-1-12-4-24-10-36z" class="st1"/>
      <path d="M1079 48c3-2 6-4 6-7v-5-6l-14 8c-7 6-14 13-23 17s-20 4-27-2c-10-10-7-29-18-37-3-2-7-3-10-3-18-3-36 2-51 13a67 67 0 00-25 46c-1 10 1 20-1 31-1 10-5 21-14 26l-9 4c-6 4-8 12-11 19s-7 13-14 14c15 23 35 34 42 35 7 2 15 0 19-3 19-13 26-44 17-57l-2-3c-8-13-9-33-7-48 5-25 16-44 41-49 8-2 25-1 31 12 2 7 13 14 33 10 13-2 26-7 37-15z" class="st2"/>
      <path d="M925 143c-5 3-9 9-11 15-4 22 10 30 13 29 4-1 6-3 9-6 4-4 11-26 3-35-4-4-9-7-14-3zM1043 34c-25 7-20 18-6 20 8 1 25-4 28-9 9-11 3-18-22-11z" class="st6"/>
      <path d="M883 0c-7 8-13 17-19 27a125 125 0 00-17 71c15-8 26-23 34-39 11-20 19-43 36-59h-34zM1035 0c10 3 19 5 29 2l4-2h-33z" class="st3"/>
      <path d="M902 0c-45 42-39 107-39 107 9-54 30-87 53-107h-14zM901 190s-3-43 25-55c1 0-39 6-25 55zM1021 37s39-18 56-9c0 0-24-16-56 9z" class="st4"/>
      <path d="M924 141c-9 7-13 18-12 29 1 7 5 14 11 17s13-2 16-6c4-7 6-17 5-25-1-10-9-20-20-15-1 1 0 4 2 3 6-4 13 2 14 8 2 4 1 9 1 13-2 8-4 17-13 20-5 1-10-5-11-10-4-11-1-24 9-31 1-1 0-4-2-3zM1043 33c-6 1-19 5-19 13 0 6 8 9 13 9 9 1 21-2 28-7 3-3 8-10 5-15-5-7-21-2-27 0-2 0-2 3 0 3 5-1 22-7 24 0 1 2-1 6-2 7-3 4-8 6-12 7-7 2-17 5-24 0-9-7 10-13 14-14 2-1 1-4 0-3z" class="st5"/>
      <path d="M902 165c-3 11-6 29 5 36 7 4 16 3 22 0 13-8 21-26 22-41 1-11-3-26-16-27-18-2-29 18-33 32-1 2 2 3 3 1 3-13 11-28 25-30 14-3 19 11 18 22 0 17-14 50-36 42-14-5-10-24-7-34 0-2-3-3-3-1z" class="st5"/>
      <path d="M945 138a78 78 0 016-78c6-9 17-16 28-18s23 2 28 12c1 2 4 1 3-1-9-18-32-16-47-8-18 10-26 32-28 52-2 14 0 29 7 42 1 2 4 0 3-1z" class="st5"/>
      <path d="M1010 49c2-7 13-11 19-13 10-4 20-7 30-8 8-1 22-1 25 9 2 9-13 15-19 18-8 3-17 6-25 7s-17 2-24-2c-4-3-7-6-6-11 0-2-3-3-3-1-3 11 10 17 19 18s19-2 28-4c10-3 20-7 28-14 6-5 7-12 2-17-3-3-8-5-12-6-12-2-26 1-38 5-9 4-23 8-27 18-1 2 2 3 3 1zM910 199c-6 0-12-5-17-8-9-7-17-15-23-24a132 132 0 012-150l13-17h-4l-3 3c-12 16-23 33-28 52-9 35-6 75 13 106 7 12 16 22 26 31 6 4 14 10 21 10 2 0 2-3 0-3z" class="st5"/>
      <path d="M1074 0c6 13 10 27 10 41 0 2 3 2 3 0 0-14-4-28-10-41h-3z" class="st5"/>
      <path d="M1319 722c-22-24-69-34-114-13-34 15-55 39-75 71-12 19-17 41-17 63-3 73 49 110 63 111 7 2 15 0 19-3 18-13 26-44 16-57l-2-3c-7-13-9-33-6-48 4-25 16-44 41-49 7-2 24-1 30 12 3 7 14 14 34 10 13-3 26-7 37-15 3-2 5-4 6-7v-5c-2-23-11-45-32-67z" class="st1"/>
      <path d="M1345 801c3-2 6-4 6-7v-5-6l-14 8c-7 6-14 13-23 17s-21 4-27-3c-10-9-7-28-18-36l-10-4a67 67 0 00-76 59l-1 32c-1 10-5 21-14 26-3 1-7 2-9 4-6 4-8 12-11 19-3 6-8 13-14 14 15 23 35 34 42 34 7 3 15 1 19-2 19-13 26-44 17-58l-3-2h1c-8-14-10-33-7-48 5-25 16-44 41-49 7-2 24-1 30 12 3 7 14 14 34 10 13-3 26-7 37-15z" class="st2"/>
      <path d="M1191 896c-5 3-10 9-11 15-4 22 10 30 13 29l9-6c4-4 11-26 3-35-4-5-9-7-14-3zM1309 787c-25 7-20 18-6 20 8 1 25-4 28-9 9-11 3-18-22-11z" class="st6"/>
      <path d="M1339 749c-5-9-11-18-20-27-22-24-69-34-114-13-34 15-55 39-75 71a125 125 0 00-17 71c15-8 26-24 34-39 11-20 19-43 36-59a103 103 0 0153-25c17-1 32 8 46 16 15 8 32 16 48 10 3-1 7-2 9-5z" class="st3"/>
      <path d="M1129 860s-6-74 49-115c55-42 97-27 114-18 0 0-135-33-163 133zM1167 943s-3-44 25-55c0 0-39 6-25 55zM1287 790s38-18 56-9c0 0-24-16-56 9z" class="st4"/>
      <path d="M1190 894c-9 7-13 18-12 29 1 7 5 14 11 17s13-2 16-7c4-7 6-17 5-25-1-9-10-19-20-14-1 1 0 4 2 3 6-4 13 2 14 8 2 4 1 9 1 13-2 8-4 17-13 20-5 1-10-5-11-10-4-11-1-24 9-31 1-1 0-4-2-3zM1309 786c-6 1-19 5-19 13 0 6 8 9 13 9 9 1 21-2 28-8 3-2 8-9 5-14-6-7-21-2-27 0-2 0-2 3 0 2 4-1 22-6 24 1 1 2-1 5-2 7-3 4-8 5-12 7-7 2-17 4-24-1-9-6 10-12 14-14 2 0 1-3 0-2z" class="st5"/>
      <path d="M1168 918c-3 11-7 28 5 36 6 4 16 3 22-1 13-8 21-25 22-40 1-11-3-26-16-27-18-2-29 17-33 32-1 2 2 2 2 1 4-13 12-28 26-30 13-3 18 11 18 22 0 17-14 50-37 42-13-5-9-24-6-34 0-2-3-3-3-1z" class="st5"/>
      <path d="M1211 890a78 78 0 016-77c6-9 17-16 28-18s23 2 28 12c1 2 4 1 3-1-9-18-32-16-47-8-18 10-26 32-28 52-2 14 0 29 7 42 1 2 4 0 3-2z" class="st5"/>
      <path d="M1276 802c2-7 13-11 19-13 9-4 20-7 30-8 8-1 22-1 25 9 2 9-13 15-19 17-8 4-17 7-25 8s-17 1-24-3c-4-2-8-6-6-10 0-2-3-3-3-1-3 11 10 16 18 17 10 2 20-1 29-3 10-3 20-8 28-14 6-5 7-12 1-17-2-3-7-5-11-6-12-2-26 1-38 5-9 3-24 8-27 18-1 2 2 3 3 1z" class="st5"/>
      <path d="M1176 952c-6 0-12-5-17-8-9-7-17-15-23-24a132 132 0 012-150c10-14 21-28 34-39 30-24 70-38 108-29 20 5 35 16 48 32 13 18 21 38 22 60 0 2 3 2 3 0-1-19-7-38-17-54a91 91 0 00-41-36c-36-16-79-6-111 15-16 10-29 23-40 37-12 16-23 33-28 52-9 35-6 75 13 106 7 12 16 22 26 31 6 4 14 10 21 10 2 0 2-3 0-3z" class="st5"/>
      <path d="M766 758c-17-27-57-25-80-5-12 11-13 30-7 45-9 27-55 53-93 50h-3c-16-1-37 4-46 19-8 12-6 28 3 39 17 22 57 25 86 17a255 255 0 00136-94c12-19 20-47 4-71z" class="st1"/>
      <path d="M627 866l28 2c8-1 18-3 21-10 4-10-5-20-15-24l-11-4c-19 12-43 20-64 18h-3c-16-1-37 4-46 19-2 4-4 8-4 12 4 9 11 17 19 21 7 4 16 3 23-1 8-5 13-11 17-19 2-4 4-10 8-13 7-5 18-3 27-1z" class="st3"/>
      <path d="M766 758c-17-27-57-25-80-5-12 11-13 30-7 45-3 11-13 22-26 31 8-1 18 0 27 1 12 1 24 1 37-1 4 0 9-1 12-4 4-3 5-8 2-12-11-2-22-4-31-11-9-8-14-20-9-31s20-15 33-12c16 3 32 16 35 32 3 17-7 33-17 45-29 35-69 59-111 75-11 4-22 8-31 16l26-4a255 255 0 00136-94c12-19 20-47 4-71z" class="st2"/>
      <path d="M734 780c-3-11-12-17-27-18-8 0-17 3-21 10s-2 16 2 23c5 11 23 14 30 12 15-3 18-17 16-27zM585 863c-11-3-22-1-31 6-8 8-9 22-1 30 6 7 16 7 25 6 5-1 9-1 13-4 7-4 11-13 10-21s-8-15-16-17z" class="st6"/>
      <path d="M575 848s-25-1-38 19c-13 19 3 39 3 39s-19-40 35-58zM607 857s21 18 10 39c-10 22-46 23-46 23s42 9 55-28c7-24-19-34-19-34zM685 807s25 25 57 3c0 0-30 12-57-3zM708 745s36-5 42 44c0 0-9-35-42-44zM611 847s39-10 59-34c0 0-13 29-59 34z" class="st4"/>
      <path d="M685 752c-14 14-14 36-4 52 9 14 26 19 42 17 6-1 12-3 17-7 7-5 10-14 11-22 2-19-6-38-23-46-13-5-32-3-43 6-1 1 1 3 2 2 8-7 22-9 32-7 18 3 28 19 29 36 1 15-5 30-20 34-13 4-29 1-39-9-15-14-16-40-2-54 2-1 0-3-2-2zM583 847c-17-1-37 4-47 19-9 14-6 34 7 45 11 9 28 11 42 8 17-4 37-16 37-36 0-21-20-35-39-36-2-1-2 2 0 3 16 1 33 11 36 28 3 20-15 33-32 37-12 4-27 3-38-4-14-8-19-27-12-41 8-16 29-21 46-20 2 0 2-3 0-3z" class="st5"/>
      <path d="M583 850c21 2 42-4 60-14 16-8 32-21 38-38 1-2-2-3-3-1-6 17-22 29-38 37-17 9-37 15-57 13-2-1-2 2 0 3z" class="st5"/>
      <path d="M687 754c18-15 45-20 65-8 13 8 20 22 21 36 2 14-3 29-10 41-7 14-16 25-27 35s-23 20-36 29c-24 17-53 31-82 36-25 5-60 4-77-18-1-2-4 0-2 1 15 21 45 24 68 22a263 263 0 00128-65c12-11 23-23 31-38 13-24 17-59-8-78-21-17-53-12-73 5-1 1 1 4 2 2z" class="st5"/>
      <path d="M735 779c-3-10-11-16-22-18s-25 1-29 13c-10 23 19 42 39 33 11-5 15-17 12-28 0-2-3-1-3 1 3 11-2 23-14 26-9 2-22-2-28-10-4-6-6-15-3-22s10-10 18-10c12-1 23 4 27 16 1 2 4 1 3-1zM585 861c-11-3-24-1-33 8-6 7-8 19-3 28 6 9 19 11 29 10 11-2 21-7 24-19s-5-23-17-27c-2 0-2 3-1 3 12 4 20 17 13 29-6 11-22 13-33 10-13-3-18-16-13-27 6-12 21-15 33-12 2 1 3-2 1-3z" class="st5"/>
      <path d="M724 0c-16 8-36 13-53 12h-3c-16-1-37 4-46 19-7 12-6 28 3 39 17 21 57 25 86 17A255 255 0 00842 0H724z" class="st1"/>
      <path d="M751 0h-27c-16 8-36 13-53 12h-3c-16-1-37 4-46 19-2 3-4 7-4 11 4 9 11 17 19 21 7 4 16 3 23-1s13-11 17-18c2-5 4-10 8-13 7-6 18-3 27-2 9 2 19 3 28 2 8 0 18-2 21-10 4-8-2-16-10-21z" class="st3"/>
      <path d="M827 0c-29 35-69 59-111 75-11 4-22 8-31 15 9 0 18-1 26-3A255 255 0 00842 0h-15z" class="st2"/>
      <path d="M670 26c-11-3-22-1-31 7-8 8-9 22-1 30 6 6 16 7 25 6l13-4c7-4 11-13 10-22-1-8-8-14-16-17z" class="st6"/>
      <path d="M660 11s-25 0-38 19c-13 20 3 39 3 39s-19-39 35-58zM692 21s21 17 10 39c-10 21-46 22-46 22s42 9 55-27c7-24-19-34-19-34zM723 0c-14 7-27 10-27 10 15-1 26-5 35-10h-8z" class="st4"/>
      <path d="M668 10c-17-1-37 4-47 19-9 14-6 35 7 46 11 9 28 11 42 8 17-4 37-16 37-36 0-21-20-36-39-37-2 0-2 3 0 3 16 1 33 12 36 29 3 20-15 33-32 37-12 3-27 3-38-4-14-8-19-27-12-41 8-17 29-22 46-21 2 0 2-3 0-3z" class="st5"/>
      <path d="M721 0c-17 8-35 12-53 10-2 0-2 3 0 3 20 2 41-3 59-13h-6zM840 0l-19 22c-11 10-23 20-36 28-24 17-53 31-82 37-25 5-60 3-77-19-1-1-4 0-2 2 15 20 45 24 68 21 15-1 30-6 44-11A263 263 0 00844 0h-4z" class="st5"/>
      <path d="M670 25c-11-3-24-1-33 8-6 7-8 19-3 27 6 10 19 11 29 10 11-1 21-6 24-18 3-13-5-24-17-27-2-1-2 2-1 3 12 3 20 17 13 28-6 11-22 13-33 11-13-3-18-16-13-28 6-12 21-14 33-11 2 0 3-3 1-3z" class="st5"/>
      <path d="M940 816c2-15 10-29 23-38 10-7 23-11 36-9 12 1 23 13 24 25 0 22-3 52-13 80-5 13-27 82-87 94s-107-18-115-53c-8-36 8-51 18-54s44-2 57 16 7 29 7 29 36-4 50-90" class="st1"/>
      <path d="M976 829c-10-2-17-10-20-20-2-8-2-17 0-25-8 9-14 20-16 32-3 19-7 34-12 46 13 5 27 7 41 6 8 0 17-2 24-6 7-5 12-12 12-21-1-3-1-6-4-8-5-6-16-3-25-4z" class="st3"/>
      <path d="M925 926c13-4 23-17 24-30 1-7-1-14-7-18l-12-4-6-2c-16 32-34 34-34 34s7-10-7-29l-4-4v11c1 10 3 21 9 29 8 11 24 17 37 13z" class="st2"/>
      <path d="M975 909c-17 18-39 30-63 37-8 2-17 3-25 1s-16-9-17-17c-1-9 4-17 1-26-4-14-24-13-37-20-8-4-12-12-14-20-9 6-18 21-12 51 8 35 55 65 115 53s82-81 87-94c5-16 9-32 11-48-9 31-23 61-46 83z" class="st2"/>
      <path d="M828 869c-8 18 49 33 51 21 4-17-45-31-51-21zM994 783c-27-12-51 44-21 48 30 5 39-40 21-48z" class="st6"/>
      <path d="M814 870s9-16 37-9c27 6 28 12 28 12s-35-18-65-3zM945 830s-9-15-1-28c8-14 17-29 39-33 0 0-44 19-38 61zM1005 842s27-40 8-67c0 0 29 29-8 67zM991 869s-1 58-65 68c0 0 48-12 65-68z" class="st4"/>
      <path d="M940 807c-4 22 13 42 34 43 14 1 29-4 39-14 8-9 11-22 11-34 0-2-3-2-3 0 0 19-8 36-26 42-11 4-24 4-34-1-13-6-20-21-18-35 1-2-2-2-3-1zM816 866c-12 13-2 26 11 34 14 8 35 13 51 6 7-3 12-9 13-17 0-2-3-2-3 0-1 16-19 18-32 17-14-2-31-7-40-19-4-7-3-13 2-19 1-2-1-4-2-2zM888 906c-2 18 16 28 32 21 2-1 0-4-1-3-6 3-13 3-19 0-7-4-9-11-9-18 1-2-2-2-3 0z" class="st5"/>
      <path d="M941 817c2-13 9-26 19-34 11-10 27-16 41-12 13 3 20 14 20 27l-3 38c-5 31-17 64-36 90-11 15-26 28-43 36-23 9-50 10-73 3-20-5-39-17-49-34-10-16-14-42-3-58 9-15 28-13 43-10 12 3 23 10 29 21 3 6 7 15 2 21 0 1 1 3 2 2 5 0 9-3 13-6 12-9 20-23 25-37 7-15 11-31 13-47 1-2-2-3-3-1-4 23-9 47-22 66-5 9-13 17-22 21l-3 1h-1l1 3c3-5 3-11 1-16-3-10-10-20-20-25-9-5-19-7-29-8-7 0-15 0-21 3-17 8-19 30-16 47 3 21 16 38 35 50 22 13 49 16 74 13 23-3 43-14 59-31 24-25 39-62 46-97 3-14 4-28 4-43 0-11-3-22-13-28-11-8-25-6-37-2a59 59 0 00-35 46c-1 2 2 3 2 1z" class="st5"/>
      <path d="M827 869c-4 8 4 15 11 19 9 5 20 8 31 8 7 0 14-2 11-11s-16-15-24-17c-7-3-24-8-29 1-1 1 2 3 3 1 3-6 16-2 21-1 8 2 18 6 24 13 2 2 5 6 3 9-2 2-6 2-8 2-9 0-18-2-26-6-6-2-18-8-15-17 1-2-1-3-2-1zM994 782c-21-9-40 18-36 37 2 11 12 15 22 14 12-1 20-11 23-21s2-25-9-30c-1-1-3 2-1 3 8 4 9 14 8 22-2 9-7 19-17 22-8 3-20 1-23-9-2-8 1-18 5-25 6-8 16-15 27-10 2 0 3-2 1-3z" class="st5"/>
      <path d="M72 980c32-25 46-67 49-77 11-28 14-58 13-79 0-13-11-25-23-26-13-2-26 2-37 10-12 9-20 23-22 37-15 86-50 90-50 90s5-7-2-21v66h72z" class="st1"/>
      <path d="M88 858c-10-1-18-10-20-20-3-8-2-17 0-25-9 9-15 20-16 32l-12 46c13 5 27 7 41 6 8 0 16-2 23-6 7-5 12-12 12-20 0-4-1-7-3-9-6-6-16-3-25-4z" class="st3"/>
      <path d="M54 907l-13-4-6-2c-15 32-33 34-33 34s5-7-2-21v28c8 11 24 17 37 13s23-16 24-30c0-7-2-14-7-18z" class="st2"/>
      <path d="M72 980c32-25 46-67 49-77 6-16 10-32 12-48-10 31-23 61-46 83-17 18-39 31-63 37-8 2-16 3-24 2v3h72z" class="st2"/>
      <path d="M105 812c-27-12-50 44-20 48 29 5 38-39 20-48z" class="st6"/>
      <path d="M57 859s-9-15-1-28c8-14 17-29 39-33 0 0-44 19-38 61zM116 871s27-40 9-67c0 0 29 29-9 67zM103 899s-2 57-66 67c0 0 49-12 66-67z" class="st4"/>
      <path d="M52 837c-4 21 13 41 34 42 14 1 29-3 39-14 8-9 11-22 11-34 0-2-3-2-3 0 0 19-8 36-27 42-10 4-23 4-33-1-13-6-21-20-18-35 0-2-2-2-3 0zM0 918v9l3-9c0-2-3-2-3 0zM0 935c-2 18 16 28 32 21 2-1 0-4-1-3-6 3-14 3-19 0-7-4-10-11-9-18 0-2-3-2-3 0z" class="st5"/>
      <path d="M0 934l2 3c5-1 9-4 13-7 12-9 20-23 25-37 6-15 10-31 13-47 2-13 9-26 19-34 10-10 27-16 41-12 13 3 20 14 20 27l-3 38c-5 31-17 64-36 90-7 9-15 18-25 25h5l12-10c24-26 39-63 46-98 2-14 4-28 4-42 0-12-3-22-13-29-11-8-26-6-37-1a59 59 0 00-36 45c-4 23-9 47-22 66-5 9-13 17-22 21l-1 1c1-4 0-9-1-13l-4-9v7c2 5 4 12 0 16z" class="st5"/>
      <path d="M106 811c-21-9-40 18-36 37 2 11 12 15 22 14 12-1 20-11 23-21s2-25-9-30c-2-1-3 2-1 3 8 4 9 14 8 22-2 9-8 19-17 22-8 3-20 1-23-9-3-8 1-18 5-25 6-8 16-15 27-10 1 0 3-2 1-3z" class="st5"/>
      <g>
        <path d="M625 435c-8 0-16 7-16 16 1 8 7 15 16 15 8 0 16-7 15-15 0-9-6-16-15-16zM493 99c-8 0-16 7-16 16 1 8 7 15 16 15 8 0 16-7 15-15 0-9-6-16-15-16zM334 666c-8 0-16 7-16 16 1 8 7 15 16 15 8 0 16-7 15-15 0-9-6-16-15-16zM187 855c-8 0-16 7-16 16 1 8 7 15 16 15 8 0 16-7 15-15 0-8-6-16-15-16zM943 456c-8 0-16 7-16 16 1 8 7 15 16 15 8 0 16-7 15-15 0-9-6-16-15-16zM1219 165c-8 0-16 7-16 16 1 8 7 15 16 15 8 0 16-7 15-15 0-9-6-16-15-16zM1351 609c-8 0-16 7-16 16 1 8 7 15 16 15 8 0 16-7 15-15 0-9-6-16-15-16zM220 336c-8 0-16 7-16 16 1 8 7 15 16 15 8 0 16-7 15-15 0-9-6-16-15-16zM526 180c-13 0-13 20 0 20s13-20 0-20zM790 90c-13 0-13 20 0 20s13-20 0-20zM1201 117c-13 0-13 20 0 20s13-20 0-20zM1006 507c-13 0-13 20 0 20s13-20 0-20zM1372 696c-13 0-13 20 0 20s13-20 0-20zM1087 732c-13 0-13 20 0 20s13-20 0-20zM1300 393c-13 0-13 20 0 20s13-20 0-20zM112 27c-13 0-13 20 0 20s13-20 0-20zM196 291c-13 0-13 20 0 20s13-20 0-20zM478 36c-13 0-13 20 0 20s13-20 0-20zM169 798c-13 0-13 20 0 20s13-20 0-20zM286 642c-13 0-13 20 0 20s13-20 0-20zM521 801l-3-2-4-1c-3 0-6 1-7 3-2 2-3 4-3 7v3c0 2 1 5 3 7l3 2 4 1c2 0 5-1 7-3s3-4 3-7v-3c0-3-1-5-3-7zM880 801c-13 0-13 20 0 20s13-20 0-20zM1036 918c-13 0-13 20 0 20s13-20 0-20zM52 354c-13 0-13 20 0 20s13-20 0-20zM847 225c-13 0-13 20 0 20s13-20 0-20z" class="st7"/>
      </g>
    </g>
  </switch>
</svg>
