<svg
  xmlns="http://www.w3.org/2000/svg" viewBox="0 0 2642 319">
  <defs/>
  <path d="M1742 194c-8 1-9 14-1 16s16 0 24 1h806c8 0 16 1 23-1 4-1 7-5 7-8 0-6-6-9-11-8h-848zM899 194c9 1 9 14 1 16-7 2-16 0-24 1H70c-7 0-15 1-23-1-4-1-6-5-6-8 0-6 5-9 10-8h848zM1686 201c-1 13 13 23 24 18 10-2 15-13 12-22-2-7-8-13-15-13-11-2-21 7-21 17zm28-2c3 6-5 14-11 13-5-1-8-6-8-10 0-5 4-9 9-10 4 0 8 3 10 7zM955 201c1 13-12 23-24 18-9-2-14-13-12-22 2-7 8-13 16-13 10-2 21 7 20 17zm-27-2c-3 6 4 14 11 13 4-1 8-6 8-10-1-5-5-9-9-10-5 0-9 3-10 7zM1321 237l13-1c48-5 94-24 136-49 20-12 38-28 59-40 20-12 43-22 67-23 26 1 51 16 63 39 9 18 10 39 5 58-3 11-8 23-17 31s-20 11-32 11c-15 0-32-6-41-19-9-15-5-39 11-48 11-6 25-4 36 1 6 3 7 9 11 13 1-4 3-9 2-13-2-7-8-12-14-15-9-5-21-6-31-4-15 4-26 17-29 32-2 10-1 22 5 32 8 13 24 21 39 23 11 0 23 1 33-3 17-6 29-19 35-35 6-19 7-39 0-58-7-23-27-41-50-49-12-5-25-5-38-4-31 5-58 22-82 40-15 12-31 23-48 33-40 24-86 41-133 44-48-3-93-20-134-44-17-10-32-21-48-33-24-18-51-35-82-40-12-1-26-1-38 4-23 8-42 26-50 49-6 19-6 39 0 58 6 16 19 29 35 35 11 4 22 3 33 3 16-2 31-10 39-23 6-10 8-22 6-32-3-15-15-28-30-32-10-2-21-1-31 4-6 3-11 8-13 15-2 4 0 9 1 13 4-4 6-10 11-13 11-5 26-7 37-1 16 9 20 33 10 48-8 13-25 19-41 19-11 0-23-3-31-11-9-8-15-20-18-31-5-19-4-40 5-58 12-23 37-38 63-39 24 1 47 11 68 23 20 12 38 28 59 40a329 329 0 00149 50zm0-16c24-1 48-9 65-26 14-15 24-34 40-48 8-8 18-13 27-20-10 0-19-3-29-4-15 0-30 1-44 7-21 9-35 28-55 37l-4 1-4-1c-21-9-35-28-55-37-14-6-30-7-44-7-10 1-20 4-30 4 10 7 19 12 27 20 16 14 26 33 41 48 17 17 41 25 65 26zm0-42l17-8c18-12 31-31 51-39 18-7 38-8 57-3-13 9-26 18-37 29-15 16-28 35-48 43-13 6-27 9-40 10-14-1-28-4-40-10-21-8-34-27-49-43-11-11-23-20-37-29 19-5 39-4 57 3 21 8 33 27 52 39l17 8zm0-17c11-8 20-20 25-33 8-20 7-44-7-61-5-6-11-11-18-14-7 3-14 8-19 14-13 17-14 41-7 61 5 13 14 25 26 33zm0-104c8 4 15 11 20 19 6 11 6 24 5 36-2 17-12 33-25 43a68 68 0 01-26-43c-1-12 0-25 6-36 4-8 11-15 20-19z"/>
  <path d="M1529 230c-3-7-10-12-17-16a91 91 0 00-72-5c-12 4-25 9-36 17 32 0 60 15 90 21 9 2 19 2 27-2 6-2 11-8 8-15zm-33 8c-27-5-53-16-80-15 17-6 35-11 54-11 18 1 38 7 51 22-8 5-17 5-25 4zM1112 230c3-7 11-12 18-16 21-12 48-12 71-5 13 4 26 9 36 17-31 0-59 15-89 21-9 2-19 2-28-2-5-2-10-8-8-15zm34 8c26-5 52-16 80-15-17-6-36-11-54-11-19 1-39 7-51 22 7 5 16 5 25 4z"/>
</svg>
