<svg xmlns="http://www.w3.org/2000/svg" viewBox="0 0 500 200">
  <defs/>
  <path fill="#4c4c4c" d="M408 2.6c13-9 32-4 43 7 1 6-3 12-6 17-2 3-6 5-9 6-3-1-8-2-11 0-3 3-6 8-5 13 0 8 5 15 11 19 4 4 10 3 13 8s6 12 3 18c-4 4-10 5-15 5-19 0-36-15-42-32-3-11-4-22-1-32 2-12 9-23 19-29zm-7 7a49 49 0 00-12 39c0 11 4 24 13 31v1c6 6 13 11 21 12v1h15l-5-5c-2-4-4-9-4-14l4-6c-8-6-15-15-15-25 1-6 6-14 13-13v-5l3-6 5-8 7-4c-3-3-6-4-10-6l-13-2c-8 0-16 4-22 10zm41 2l4 1 1 3c-1 4-3 7-6 10h-6l.8-3.4c-.4 2.5 2.3 3.3 4.2 2.4l5-8c0-1 0-4-2-4-4 2-4 7-7 9v-1c-2 2-3 6-4 9 3 3 7 1 9-1 4-4 7-10 9-16 1-3-2-4-4-4zm-6.2 10.6l.2-.6zM433 71.6c-3 3-2 9 0 12 1 4 4 8 8 9 7-1 7-12 3-16v-2h-1c-1-4-7-7-10-3zm-96 53h.5l-.5-2c1-2 4-3 6-2 5 1 8 6 11 10 0 2 1 6-2 7-2 2-4 0-7-1l7 6c2 1 5 1 7-1 2-6-1-11-5-15-4-5-8-9-13-12-2-1-5 0-6 2-.8 3.3.4 6.6 2 8.8zm-137 14c2-8 10-12 18-12 8-1 15 2 22 6 10 7 20 14 27 24 5 8 10 16 10 26 1 4 0 9-3 13-3 5-11 7-16 3-4-3-7-7-8-12-2-9-8-17-15-23-2-1.3-4-3.8-6.3-4.6 3.2 1 5.7 2 8.3 4.6 5 4 10 10 13 16 0-3 2-5 4-8l8-2c5 0 8 4 11 7 1 2 4 5 1 6-2-6-6-11-12-12-4-1-7 2-9 5-3 6-2 14 2 19 3 5 10 7 15 3l1-1c4-3 4-9 4-13l2 2c-1-5-1-10-3-14l-1-1-3-7c-9-14-22-25-36-32-8-4-19-6-27 0-7 4-8 14-4 20l1-9 8-7c5-1 11-1 15 3 1 3 3 6 3 10s-2 7-3 10c.6.1 1.1 1.4 1.7 1.6a12 12 0 00-3.7-.6c-4 3-11 5-16 2-7-5-12-14-9-23zm28.7 21.6zM213 137.6c-6 2-10 8-8 14 0 3 2 5 4 7s4.4 2.9 6.8 3c-2.9-1.2-4.8-5-5.8-8 0-3 1-7 4-9 3-3 9-2 12 1 1 3 2 7 0 10a7 7 0 01-1 2.3c1.2-1.2 2.3-2.7 3-4.3 2-5 0-12-4-15-3-3-8-3-11-1zM467 182c12-8 28-12 43-8v1l-10-1a55 55 0 00-32 9l4 12 2 4v1l1 4h-1c-3-7-6-14-7-22zM.6 120c9 3 18 8 23 17 5 8 8 19 6 29-3 10-8 20-16 27l-13 9v-2c8-5 16-11 21-19a39 39 0 00-4-50c-5-5-11-8-17-10zM94.9 139c7-4 16-5 24-4 3 6 3 15 0 22l-4 2c-9 3-13 16-7 24 5 6 13 8 21 8 5 6 6 14 6 21l-1 9c-7 0-15 1-22-1-15-3-29-15-35-29-3-7-3-15-2-23 2-12 9-24 20-29zm9-2c-9 2-18 8-23 16-9 16-7 39 7 51 4 6 10 10 17 12 8 4 18 4 27 4l2-3c1-7 0-16-4-22 0-2-1-3-3-3-8 0-17-3-22-10-4-9 1-21 10-25 2 0 4-2 3-4 3-5 2-10 1-15l-1-2zM40.4 28.5c4-4 9-8 15-8 3 0 4 2 5 4l-2.3 5.2a9 9 0 00-3 1.4c-1.1 1-2.3 1.7-3.7 2.4-3 1-7 3-11 2l-2-2zm14.7 5.7a25.3 25.3 0 01-11.7 5.3c-4 0-8-2-12-4-1 10 4 19 9 27l10 12c7 8 7 21-1 29-4 4-11 4-15 1-9-6-17-15-23-25-8-11-13-25-12-39 1-8 4-15 9-21 7-9 18-16 30-17 9 0 19 5 23 13 3 3 3 9 0 12-.9 1.3-2 1.7-3.1 2.1 2.5-2.6 4.1-5.7 4.1-9.1-1-4-4-6-8-6-8 2-14 7-18 14l-1 4 2 5h6c3 0 7-1 8-3 2.5-1.3 4.8-2.8 6.6-4.6a13 13 0 01-2.9 4.3zm-13.7-3.7l-1 4c7 1 13-3 17-8 2-2 1-5-2-5-6 1-10 5-14 9zM434 73.6c4-1 7 0 10 3l1 2c1 3 3 8-1 10-4 1-8-3-10-6s-1-6 0-9zm1 1c-4 5 3 14 9 13 2-2 1-6-1-8-1-3-4-6-8-5zM31.4 85.5c1-4 3-9 8-9 3 0 5 2 7 3 2 3 4 6 4 10s-2 9-7 10c-7 0-12-8-12-14zm5-7c-3 2-5 7-3 11 1 3 4 6 7 7 2 1 5 1 6-1 4-3 3-9 0-13-2-3-6-6-10-4zM337 112.6c4 0 7 2 9 4 7 5 14 12 15 21 1 5-4 7-4 12 1 9 10 16 18 16 10 1 20-2 27-9 4-3 6-9 11-11 7-3 14-3 21-1 6 2 8 9 7 15-1 8-4 16-9 23-8 13-22 21-37 25-13 3-27 1-39-3-17-5-31-16-39-31-5-9-7-21-4-31 4-12 13-23 24-30zm-15 16c-6 8-10 18-9 28s6 19 12 27c10 12 25 20 41 22a63 63 0 0068-28c3-6 5-12 6-19l-8 5c-6 1-13 2-19 0-4-1-6-4-7-8-8 8-19 12-30 12-8 0-17-6-20-14-1-3 0-6 1-8l-6-2-8-7-8-11-2-8c-4 3-8 6-11 11zm17-6c0 4 3 7 5 10 3 2 5 5 8 4 2-5-3-10-7-13-1-2-4-2-6-1zm-1 4v1l1 1v-2zm82 19c-4 0-9 3-12 7-1 3 1 7 3 9 7 4 16 2 23-1 2-1 5-3 5-6s-1-6-4-8c-4-2-10-2-15-1zm-203-2c-7 2-7 12-2 16 5 2 10-1 11-6s-3-11-9-10zm2.8-159.5c8-3 16-4 24-3 8 2 17 4 23 10l-20-8c-10-2-22-1-32 4-8 5-15 12-18 22-4 9-4 20-1 29s8 17 15 24l7 5 9-7c5-3 9-7 12-11l5-6c-5-3-9-6-11-12-2-3-1-8 2-10 4-3 9-3 13-2l11 8 2-4c7-6 14-12 23-14h3a97 97 0 00-19-17c4 1 8 4 11 7l11 11-1 5c-3 6-9 9-15 13h-1l1-2c1-1 1-1 0 0-1 .3-1.8 1.2-2.6 2h.6c-.2.2-.5.3-.9.3-.8 1-1.7 1.8-2.7 2a13.8 13.8 0 01-8.4.7c-3-3-6-7-10-9-3-3-8-3-12-2-4 2-6 7-4 11 2 5 8 9 12 12-8 11-18 19-28 26-11-8-19-19-24-31-2-10-2-21 1-30 4-12 14-20 25-24zm45 44c0-4 3-7 7-9 4-3 8-6 13-6 1 3-2 6-4 8 4-2 7-5 8-10h-4c-6 1-11 4-15 7l-9 8c-1 1-2 3 0 4l9.4-1.8c-.8-.1-1.6-.4-2.4-.1a6 6 0 01-3-.1zm12-4c2 1 3-1 3-2-1 0-3 0-3 2zm-11 3c3 0 6-2 9-4s7-4 9-8h-1c-7 2-14 6-17 12zM19.4 11.5c-12 8-20 22-19 36 1 12 6 23 13 33l6 8 5 6-1-8c1-6 4-11 8-14s9-3 14-2l-10-13 1-1-2-2c-4-7-5-14-4-21-2-2-6-2-8 0-3 1-2 5-5 6 1-4 2-7 6-8 2-2 5-1 7 0l4 4v-4l1-4c5-9 14-15 24-14-3-4-7-7-12-8-10-4-21 0-28 6zm14 61c-5 3-8 9-9 15l1 3c0 6 6 12 12 14l5 1c7-1 11-8 11-14h1c0-7-2-16-9-19v-1c-4 0-8-1-12 1zm24.9-42.9l-.3.3.1-.2h.2z"/>
  <path stroke="#000" stroke-linecap="round" stroke-linejoin="round" stroke-miterlimit="1" stroke-width="20" d="M275.5 73.5H435v53.8H275.5z" filter="none" opacity=".8" paint-order="stroke" vector-effect="non-scaling-stroke"/>
  <path fill="#333" d="M81.4 104.7c0 2 1.4 3 4.3 3 2.8 0 4.2-1 4.2-2.7 0-1-.4-1.7-1.4-2.3-1-.6-2.2-1.1-3.6-1.6-1.4-.4-2.8-.8-4.2-1.4a8.7 8.7 0 01-3.5-2.5 6.3 6.3 0 01-1.5-4.2c0-7.2 4.6-10.9 14-10.9 3.3 0 6 .7 7.6 2 1.8 1.3 2.7 3 2.7 5.3a8.7 8.7 0 01-1 4l-.4.5H91c.6-.6 1-1.5 1-2.5 0-1.8-1.3-2.8-3.7-2.8-3.1 0-4.7 1-4.7 3 0 1 .5 1.7 1.5 2.3 1 .6 2.2 1 3.6 1.4l4.2 1.2c1.4.5 2.6 1.3 3.6 2.4 1 1.2 1.4 2.6 1.4 4.4 0 3.7-1 6.4-3.3 8.2-2.1 1.8-5.5 2.6-10 2.6-4.6 0-7.7-.8-9.4-2.4a6.7 6.7 0 01-1.8-5c0-.8 0-1.7.2-2.6l.2-.7h7.7v.5l-.1.8zm42.2 3.3c.7 0 1.3-.1 1.8-.4l-.2 4.9a7 7 0 01-4.7 1.6c-3.9 0-5.8-1.6-5.8-4.9l.1-1.8 1-5.3.1-1.6c0-1.4-.7-2-2.2-2-1.4 0-2.5.4-3.3 1.4l-2.5 13.6h-7.3l5.8-32.7h7.3l-2.4 14a7.8 7.8 0 016-2.6c2.8 0 4.7.6 5.6 2a5 5 0 01.9 2.8l-.3 3-1.1 6.4v.4c0 .8.4 1.2 1.2 1.2zm25.1-1.1c0 .7.4 1.1 1.2 1.1.7 0 1.4-.1 1.9-.4l-.2 4.9a7.2 7.2 0 01-4.7 1.6c-3.2 0-5-1.2-5.3-3.7a8 8 0 01-7 3.7c-2.9 0-4.8-.6-5.6-2-.6-.8-.9-1.7-.9-2.8 0-1 0-2 .3-3l2.4-13.5h7.3l-2 11.5-.2 1.5c0 1.4.8 2 2.4 2 1.3 0 2.3-.4 3-1.3l2.6-13.7h7.3l-2.4 13.6v.5zm26.6 0c0 .7.4 1.1 1.1 1.1.8 0 1.4-.1 2-.4l-.3 4.9a7.2 7.2 0 01-4.6 1.6c-3.3 0-5-1.2-5.3-3.7a8 8 0 01-7 3.7c-3 0-4.8-.6-5.7-2-.6-.8-.9-1.7-.9-2.8l.3-3 2.4-13.5h7.4l-2 11.5c-.2.5-.2 1-.2 1.5 0 1.4.8 2 2.3 2 1.3 0 2.4-.4 3.1-1.3l2.5-13.7h7.3l-2.4 13.6v.5zm19.6-6.6c0-1.3-.6-1.9-1.8-1.9-1.2 0-2.2.5-3 1.4l-2.4 13.7h-7.3l3.7-20.7h6.8l-.5 2.5a8 8 0 016.5-3.1c2.5 0 4.2.6 5 1.9.5.8.7 1.7.7 2.7 0 1 0 2-.2 3l-1.1 6.6v.4c0 .8.3 1.2 1.2 1.2.7 0 1.3-.1 1.8-.4l-.2 4.9a7 7 0 01-4.7 1.6c-3.9 0-5.8-1.6-5.8-4.9 0-.6 0-1.2.2-1.8l1-5.8.1-1.3zm20.6 13.8c-6 0-9-2-9-6.2l.2-1.8 1-5.4a9.5 9.5 0 013.8-6.4c2-1.4 4.7-2.2 8.1-2.2 5.8 0 8.7 2.2 8.7 6.6 0 .6 0 1.3-.2 2l-.5 3.1h-13.1l-.2 1-.1 1c0 1.5 1 2.3 2.8 2.3.7 0 1.3-.2 1.8-.6.5-.4.8-1 .8-1.5h7.2c-1 5.5-4.7 8.1-11.3 8.1zm-.6-13h5.8l.2-1.3a2 2 0 00-.6-1.2c-.3-.5-1-.7-1.8-.7s-1.5.3-2.2.8c-.7.6-1.2 1.4-1.4 2.5zm29.6-.8c0-1.3-.6-1.9-1.7-1.9-1.2 0-2.2.5-3 1.4l-2.4 13.7H230l3.7-20.7h6.8l-.4 2.5a8 8 0 016.4-3.1c2.6 0 4.3.6 5 1.9.5.8.8 1.7.8 2.7l-.2 3-1.2 6.6v.4c0 .8.4 1.2 1.2 1.2.7 0 1.3-.1 1.8-.4l-.2 4.9a7 7 0 01-4.6 1.6c-4 0-5.9-1.6-5.9-4.9 0-.6 0-1.2.2-1.8l1-5.8.1-1.3z" style="white-space:pre"/>
  <path fill="#fff" d="M282.5 82.5H295c3.3 0 5.7.7 7 2.1a6 6 0 011.6 4.2c0 .5 0 1.1-.2 1.8l-.6 3.3a11 11 0 01-1.8 4.6 7 7 0 01-2.8 2.4l4 12.6h-8.8l-3.6-11.6H287l-1.8 11.6H277l5.5-31zm9.8 6.7h-3.2l-1.1 7.5h3a5 5 0 003.3-1 5 5 0 001-3c0-2.3-1-3.5-3-3.5zm21.9 25c-6 0-9-2.1-9-6.3 0-.6 0-1.2.2-1.8l1-5.4a9.5 9.5 0 013.7-6.4c2-1.4 4.8-2.2 8.2-2.2 5.8 0 8.7 2.2 8.7 6.6 0 .6 0 1.3-.2 2l-.5 3.1H313l-.1 1-.1 1c0 1.5.9 2.3 2.8 2.3.7 0 1.3-.2 1.7-.6.5-.4.8-1 .9-1.5h7.2c-1 5.5-4.7 8.1-11.3 8.1zm-.6-13h5.8l.2-1.4a2 2 0 00-.6-1.2c-.4-.5-1-.7-1.8-.7s-1.6.3-2.2.8c-.7.6-1.2 1.4-1.4 2.5zm24.4 13c-6 0-9-2.1-9-6.3l.2-1.8 1-5.4a9.3 9.3 0 013.7-6.3c2-1.5 4.7-2.2 7.8-2.3 6.2 0 9.2 2.2 9.2 6.4 0 1 0 1.8-.3 2.5-.2.7-.4 1.2-.7 1.5l-.3.4h-7.3c.7-.6 1-1.4 1-2.2 0-1.6-.7-2.4-2.3-2.4-1 0-1.7.3-2.4.9a4 4 0 00-1.3 2.5l-.5 3.1-.1.8c0 1.6 1 2.3 2.8 2.3.7 0 1.2-.2 1.7-.6.6-.4.8-.8 1-1.3h7.1c-1 5.5-4.7 8.1-11.3 8.1zm24.1-6.2c.7 0 1.3-.1 1.8-.4l-.2 4.9a7 7 0 01-4.6 1.6c-2.6 0-4.3-.6-5.1-1.8-.5-.8-.8-1.6-.8-2.5 0-1 0-1.7.2-2.4l2.6-14.6h7.3l-2.4 13.6v.4c0 .8.4 1.2 1.2 1.2zm-5.3-22.3c0-1.8.5-3.1 1.3-4 .8-.9 2-1.3 3.8-1.3 2.4 0 3.6 1 3.6 3.2 0 1.8-.4 3.2-1.2 4-.8.8-2.1 1.2-3.9 1.2-2.4 0-3.6-1-3.6-3zm24.7 6.5c3 0 5 .8 6.1 2.3a6.9 6.9 0 011.2 4.1c0 .7 0 1.4-.2 2.1l-.9 5a10 10 0 01-3.1 6.3 8.8 8.8 0 01-6 2.1c-2.5 0-4.1-.6-5.1-2l-2.3 13.4h-7.4l5.8-32.7h6.7l-.2 1.1a8.1 8.1 0 015.4-1.7zM377 108c.8 0 1.6-.2 2.3-.7a4 4 0 001.3-2.4l.5-3.2.1-1.1a3 3 0 00-.5-1.4c-.4-.5-1-.7-2-.7-1.5 0-2.4.3-2.9 1l-1.3 7.3c.4.8 1.3 1.2 2.5 1.2zm23.1 6.2c-6 0-9-2-9-6.2l.2-1.8 1-5.4a9.5 9.5 0 013.8-6.4c2-1.4 4.7-2.2 8.1-2.2 5.8 0 8.7 2.2 8.7 6.6 0 .6 0 1.3-.2 2l-.5 3.1h-13.1l-.2 1-.1 1c0 1.5 1 2.3 2.8 2.3.7 0 1.3-.2 1.8-.6.5-.4.8-1 .8-1.5h7.2c-1 5.5-4.7 8.1-11.3 8.1zm-.6-13h5.8l.2-1.3a2 2 0 00-.6-1.2c-.3-.5-1-.7-1.8-.7s-1.5.3-2.2.8c-.7.6-1.2 1.4-1.4 2.5zm37.3-3.8c0 1-.3 1.8-.8 2.6h-7.1c.2-.2.3-.5.3-.9s-.2-.7-.7-1a4 4 0 00-1.7-.3c-2.2 0-3.3.6-3.3 2 0 .5.4.9 1.2 1.1l3 .6c1.1.1 2.3.3 3.4.6a6 6 0 013 1.6c.8.8 1.2 1.9 1.2 3.2a6 6 0 01-2.9 5.5 16 16 0 01-8.3 1.8c-3.7 0-6.3-.6-7.7-1.7a4.6 4.6 0 01-1.8-3.8c0-.5 0-1 .2-1.4l7.2-.1c0 .4.2.7.7 1 .5.3 1.3.5 2.3.5 1 0 1.8-.1 2.3-.4.5-.2.7-.6.7-1.2 0-.4-.4-.7-1.2-.8l-3-.4a29 29 0 01-3.5-.6 5.8 5.8 0 01-3-1.6c-.8-.9-1.2-2-1.2-3.3a7 7 0 013-6 15 15 0 018.9-2.2c5.9 0 8.8 1.7 8.8 5.2z" style="white-space:pre"/>
</svg>
